<svg width="1530" height="231" viewBox="0 0 1530 231" fill="none" xmlns="http://www.w3.org/2000/svg">
<rect width="1530" height="231" fill="#4A3AFF"/>
<g clip-path="url(#clip0_407_2)">
<path d="M-524.004 327.065L-133.186 -232.292C14.6259 -443.832 222.269 -606.395 463.099 -699.121L1100.19 -944.442" stroke="white" stroke-opacity="0.1" stroke-miterlimit="10" stroke-linecap="round"/>
<path d="M-496.237 362.532L-105.419 -196.825C42.3925 -408.365 250.035 -570.928 490.866 -663.654L1127.95 -908.976" stroke="white" stroke-opacity="0.1" stroke-miterlimit="10" stroke-linecap="round"/>
<path d="M-468.47 397.999L-77.6521 -161.359C70.1596 -372.898 277.802 -535.461 518.633 -628.187L1155.72 -873.509" stroke="white" stroke-opacity="0.1" stroke-miterlimit="10" stroke-linecap="round"/>
<path d="M-440.704 433.465L-49.8855 -125.892C97.9262 -337.432 305.569 -499.994 546.399 -592.72L1183.49 -838.042" stroke="white" stroke-opacity="0.1" stroke-miterlimit="10" stroke-linecap="round"/>
<path d="M-414.479 466.962L-23.6609 -92.3952C124.151 -303.935 331.794 -466.498 572.624 -559.224L1209.68 -804.585" stroke="white" stroke-opacity="0.1" stroke-miterlimit="10" stroke-linecap="round"/>
<path d="M-386.713 502.429L4.10518 -56.9284C151.917 -268.468 359.56 -431.031 600.39 -523.757L1237.45 -769.118" stroke="white" stroke-opacity="0.1" stroke-miterlimit="10" stroke-linecap="round"/>
<path d="M-358.945 537.896L31.8728 -21.4616C179.685 -233.001 387.327 -395.564 628.158 -488.29L1265.22 -733.651" stroke="white" stroke-opacity="0.1" stroke-miterlimit="10" stroke-linecap="round"/>
<path d="M-331.179 573.362L59.6389 14.0052C207.451 -197.535 415.094 -360.097 655.924 -452.823L1292.98 -698.184" stroke="white" stroke-opacity="0.1" stroke-miterlimit="10" stroke-linecap="round"/>
<path d="M-304.955 606.859L85.8635 47.5018C233.675 -164.038 441.318 -326.601 682.149 -419.327L1319.21 -664.688" stroke="white" stroke-opacity="0.1" stroke-miterlimit="10" stroke-linecap="round"/>
<path d="M-277.189 642.326L113.63 82.9686C261.441 -128.571 469.084 -291.134 709.915 -383.86L1346.97 -629.221" stroke="white" stroke-opacity="0.1" stroke-miterlimit="10" stroke-linecap="round"/>
<path d="M-249.421 677.793L141.397 118.435C289.209 -93.1045 496.852 -255.667 737.682 -348.393L1374.74 -593.754" stroke="white" stroke-opacity="0.1" stroke-miterlimit="10" stroke-linecap="round"/>
<path d="M-221.655 713.259L169.163 153.902C316.975 -57.6377 524.618 -220.2 765.448 -312.926L1402.51 -558.288" stroke="white" stroke-opacity="0.1" stroke-miterlimit="10" stroke-linecap="round"/>
<path d="M-195.43 746.756L195.388 187.399C343.2 -24.1411 550.843 -186.704 791.673 -279.43L1428.73 -524.791" stroke="white" stroke-opacity="0.1" stroke-miterlimit="10" stroke-linecap="round"/>
<path d="M-167.664 782.223L223.154 222.866C370.966 11.3257 578.609 -151.237 819.439 -243.963L1456.5 -489.324" stroke="white" stroke-opacity="0.1" stroke-miterlimit="10" stroke-linecap="round"/>
<path d="M-139.897 817.69L250.922 258.332C398.733 46.7925 606.376 -115.77 847.207 -208.496L1484.26 -453.857" stroke="white" stroke-opacity="0.1" stroke-miterlimit="10" stroke-linecap="round"/>
<path d="M-112.13 853.156L278.688 293.799C426.499 82.2593 634.142 -80.3032 874.973 -173.029L1512.06 -418.351" stroke="white" stroke-opacity="0.1" stroke-miterlimit="10" stroke-linecap="round"/>
<path d="M-84.3628 888.623L306.455 329.266C454.267 117.726 661.91 -44.8364 902.74 -137.563L1539.83 -382.884" stroke="white" stroke-opacity="0.1" stroke-miterlimit="10" stroke-linecap="round"/>
<path d="M-56.5967 924.09L334.221 364.733C482.033 153.193 689.676 -9.36964 930.506 -102.096L1567.59 -347.417" stroke="white" stroke-opacity="0.1" stroke-miterlimit="10" stroke-linecap="round"/>
<path d="M-28.8291 959.557L361.989 400.2C509.801 188.66 717.444 26.0972 958.274 -66.629L1595.36 -311.951" stroke="white" stroke-opacity="0.1" stroke-miterlimit="10" stroke-linecap="round"/>
<path d="M-1.06303 995.024L389.755 435.666C537.567 224.127 745.21 61.564 986.04 -31.1622L1623.13 -276.484" stroke="white" stroke-opacity="0.1" stroke-miterlimit="10" stroke-linecap="round"/>
<path d="M25.1616 1028.52L415.98 469.163C563.791 257.623 771.434 95.0605 1012.26 2.33441L1649.35 -242.987" stroke="white" stroke-opacity="0.1" stroke-miterlimit="10" stroke-linecap="round"/>
<path d="M52.9277 1063.99L443.746 504.63C591.558 293.09 799.2 130.527 1040.03 37.8012L1677.12 -207.521" stroke="white" stroke-opacity="0.1" stroke-miterlimit="10" stroke-linecap="round"/>
<path d="M80.6953 1099.45L471.513 540.097C619.325 328.557 826.968 165.994 1067.8 73.268L1704.89 -172.054" stroke="white" stroke-opacity="0.1" stroke-miterlimit="10" stroke-linecap="round"/>
<path d="M108.461 1134.92L499.28 575.563C647.091 364.023 854.734 201.461 1095.56 108.735L1732.65 -136.587" stroke="white" stroke-opacity="0.1" stroke-miterlimit="10" stroke-linecap="round"/>
<path d="M134.686 1168.42L525.504 609.059C673.316 397.52 880.959 234.957 1121.79 142.231L1758.88 -103.091" stroke="white" stroke-opacity="0.1" stroke-miterlimit="10" stroke-linecap="round"/>
<path d="M162.452 1203.88L553.27 644.527C701.082 432.987 908.725 270.424 1149.56 177.698L1786.64 -67.6236" stroke="white" stroke-opacity="0.1" stroke-miterlimit="10" stroke-linecap="round"/>
<path d="M190.22 1239.35L581.038 679.993C728.85 468.454 936.492 305.891 1177.32 213.165L1814.41 -32.1568" stroke="white" stroke-opacity="0.1" stroke-miterlimit="10" stroke-linecap="round"/>
<path d="M217.986 1274.82L608.804 715.46C756.616 503.92 964.259 341.358 1205.09 248.632L1842.18 3.30999" stroke="white" stroke-opacity="0.1" stroke-miterlimit="10" stroke-linecap="round"/>
<path d="M244.21 1308.31L635.029 748.956C782.84 537.417 990.483 374.854 1231.31 282.128L1868.4 36.8061" stroke="white" stroke-opacity="0.1" stroke-miterlimit="10" stroke-linecap="round"/>
<path d="M271.977 1343.78L662.795 784.423C810.607 572.883 1018.25 410.321 1259.08 317.595L1896.17 72.2729" stroke="white" stroke-opacity="0.1" stroke-miterlimit="10" stroke-linecap="round"/>
<path d="M299.744 1379.25L690.562 819.89C838.374 608.35 1046.02 445.788 1286.85 353.061L1923.94 107.74" stroke="white" stroke-opacity="0.1" stroke-miterlimit="10" stroke-linecap="round"/>
<path d="M327.511 1414.71L718.329 855.357C866.141 643.817 1073.78 481.255 1314.61 388.529L1951.7 143.207" stroke="white" stroke-opacity="0.1" stroke-miterlimit="10" stroke-linecap="round"/>
<path d="M348.68 1445.81L739.498 886.456C887.31 674.916 1094.95 512.354 1335.78 419.627L1972.87 174.306" stroke="white" stroke-opacity="0.1" stroke-miterlimit="10" stroke-linecap="round"/>
<path d="M376.446 1481.28L767.264 921.922C915.076 710.382 1122.72 547.82 1363.55 455.094L2000.64 209.772" stroke="white" stroke-opacity="0.1" stroke-miterlimit="10" stroke-linecap="round"/>
<path d="M404.213 1516.75L795.031 957.389C942.843 745.85 1150.49 583.287 1391.32 490.561L2028.4 245.239" stroke="white" stroke-opacity="0.1" stroke-miterlimit="10" stroke-linecap="round"/>
<path d="M431.979 1552.21L822.798 992.856C970.609 781.316 1178.25 618.754 1419.08 526.028L2056.17 280.706" stroke="white" stroke-opacity="0.1" stroke-miterlimit="10" stroke-linecap="round"/>
<path d="M458.204 1585.71L849.022 1026.35C996.834 814.813 1204.48 652.25 1445.31 559.524L2082.4 314.203" stroke="white" stroke-opacity="0.1" stroke-miterlimit="10" stroke-linecap="round"/>
<path d="M485.97 1621.18L876.788 1061.82C1024.6 850.28 1232.24 687.717 1473.07 594.991L2110.16 349.669" stroke="white" stroke-opacity="0.1" stroke-miterlimit="10" stroke-linecap="round"/>
<path d="M513.738 1656.64L904.556 1097.29C1052.37 885.747 1260.01 723.184 1500.84 630.458L2137.93 385.136" stroke="white" stroke-opacity="0.1" stroke-miterlimit="10" stroke-linecap="round"/>
<path d="M541.504 1692.11L932.322 1132.75C1080.13 921.213 1287.78 758.651 1528.61 665.925L2165.7 420.603" stroke="white" stroke-opacity="0.1" stroke-miterlimit="10" stroke-linecap="round"/>
</g>
<defs>
<clipPath id="clip0_407_2">
<rect width="1530" height="231" fill="white"/>
</clipPath>
</defs>
</svg>
