<svg width="748" height="293" viewBox="0 0 748 293" fill="none" xmlns="http://www.w3.org/2000/svg">
<g clip-path="url(#clip0_521_14)">
<rect width="748" height="293" fill="white"/>
<rect width="748" height="293" fill="#14C88C"/>
<path opacity="0.1" fill-rule="evenodd" clip-rule="evenodd" d="M0 0H748V293H0V0ZM1.16875 0.523214H92.3312V41.3339H1.16875V0.523214ZM94.6687 0.523214H185.831V41.3339H94.6687V0.523214ZM279.331 0.523214H188.169V41.3339H279.331V0.523214ZM281.669 0.523214H372.831V41.3339H281.669V0.523214ZM466.331 0.523214H375.169V41.3339H466.331V0.523214ZM468.669 0.523214H559.831V41.3339H468.669V0.523214ZM653.331 0.523214H562.169V41.3339H653.331V0.523214ZM655.669 0.523214H746.831V41.3339H655.669V0.523214ZM92.3312 42.3804H1.16875V83.1911H92.3312V42.3804ZM94.6687 42.3804H185.831V83.1911H94.6687V42.3804ZM279.331 42.3804H188.169V83.1911H279.331V42.3804ZM281.669 42.3804H372.831V83.1911H281.669V42.3804ZM466.331 42.3804H375.169V83.1911H466.331V42.3804ZM468.669 42.3804H559.831V83.1911H468.669V42.3804ZM653.331 42.3804H562.169V83.1911H653.331V42.3804ZM655.669 42.3804H746.831V83.1911H655.669V42.3804ZM92.3312 84.2375H1.16875V125.048H92.3312V84.2375ZM94.6687 84.2375H185.831V125.048H94.6687V84.2375ZM279.331 84.2375H188.169V125.048H279.331V84.2375ZM281.669 84.2375H372.831V125.048H281.669V84.2375ZM466.331 84.2375H375.169V125.048H466.331V84.2375ZM468.669 84.2375H559.831V125.048H468.669V84.2375ZM653.331 84.2375H562.169V125.048H653.331V84.2375ZM655.669 84.2375H746.831V125.048H655.669V84.2375ZM92.3312 126.095H1.16875V166.905H92.3312V126.095ZM94.6687 126.095H185.831V166.905H94.6687V126.095ZM279.331 126.095H188.169V166.905H279.331V126.095ZM281.669 126.095H372.831V166.905H281.669V126.095ZM466.331 126.095H375.169V166.905H466.331V126.095ZM468.669 126.095H559.831V166.905H468.669V126.095ZM653.331 126.095H562.169V166.905H653.331V126.095ZM655.669 126.095H746.831V166.905H655.669V126.095ZM92.3312 167.952H1.16875V208.762H92.3312V167.952ZM94.6687 167.952H185.831V208.762H94.6687V167.952ZM279.331 167.952H188.169V208.762H279.331V167.952ZM281.669 167.952H372.831V208.762H281.669V167.952ZM466.331 167.952H375.169V208.762H466.331V167.952ZM468.669 167.952H559.831V208.762H468.669V167.952ZM653.331 167.952H562.169V208.762H653.331V167.952ZM655.669 167.952H746.831V208.762H655.669V167.952ZM92.3312 209.809H1.16875V250.62H92.3312V209.809ZM94.6687 209.809H185.831V250.62H94.6687V209.809ZM279.331 209.809H188.169V250.62H279.331V209.809ZM281.669 209.809H372.831V250.62H281.669V209.809ZM466.331 209.809H375.169V250.62H466.331V209.809ZM468.669 209.809H559.831V250.62H468.669V209.809ZM653.331 209.809H562.169V250.62H653.331V209.809ZM655.669 209.809H746.831V250.62H655.669V209.809ZM92.3312 251.666H1.16875V292.477H92.3312V251.666ZM94.6687 251.666H185.831V292.477H94.6687V251.666ZM279.331 251.666H188.169V292.477H279.331V251.666ZM281.669 251.666H372.831V292.477H281.669V251.666ZM466.331 251.666H375.169V292.477H466.331V251.666ZM468.669 251.666H559.831V292.477H468.669V251.666ZM653.331 251.666H562.169V292.477H653.331V251.666ZM655.669 251.666H746.831V292.477H655.669V251.666Z" fill="white" fill-opacity="0.59"/>
<path opacity="0.3" d="M277 314C277 292.461 294.461 275 316 275C337.539 275 355 292.461 355 314" stroke="white" stroke-opacity="0.7" stroke-width="5"/>
<path d="M541.858 257.466C542.101 257.888 542.339 258.314 542.569 258.745C542.15 258.47 541.87 258.001 541.858 257.466Z" fill="url(#paint0_linear_521_14)" fill-opacity="0.61"/>
<path d="M533.253 246.617C533.986 247.304 534.696 248.014 535.383 248.747C535.117 249.238 534.598 249.571 534 249.571C533.132 249.571 532.429 248.868 532.429 248C532.429 247.402 532.762 246.883 533.253 246.617Z" fill="url(#paint1_linear_521_14)" fill-opacity="0.61"/>
<path d="M523.255 239.431C523.686 239.661 524.112 239.899 524.534 240.142C523.999 240.13 523.53 239.85 523.255 239.431Z" fill="url(#paint2_linear_521_14)" fill-opacity="0.61"/>
<path d="M477.466 240.142C477.888 239.899 478.314 239.661 478.745 239.431C478.47 239.85 478.001 240.13 477.466 240.142Z" fill="url(#paint3_linear_521_14)" fill-opacity="0.61"/>
<path d="M466.617 248.747C467.304 248.014 468.014 247.304 468.747 246.617C469.238 246.883 469.571 247.402 469.571 248C469.571 248.868 468.868 249.571 468 249.571C467.402 249.571 466.883 249.238 466.617 248.747Z" fill="url(#paint4_linear_521_14)" fill-opacity="0.61"/>
<path d="M459.431 258.745C459.661 258.314 459.899 257.888 460.142 257.466C460.13 258.001 459.85 258.47 459.431 258.745Z" fill="url(#paint5_linear_521_14)" fill-opacity="0.61"/>
<path d="M542.569 303.255C542.339 303.686 542.101 304.112 541.858 304.534C541.87 303.999 542.15 303.53 542.569 303.255Z" fill="url(#paint6_linear_521_14)" fill-opacity="0.61"/>
<path d="M535.383 313.253C535.117 312.762 534.598 312.429 534 312.429C533.132 312.429 532.429 313.132 532.429 314C532.429 314.598 532.762 315.117 533.253 315.383C533.986 314.696 534.696 313.986 535.383 313.253Z" fill="url(#paint7_linear_521_14)" fill-opacity="0.61"/>
<path d="M524.534 321.858C523.999 321.87 523.53 322.15 523.255 322.569C523.686 322.339 524.112 322.101 524.534 321.858Z" fill="url(#paint8_linear_521_14)" fill-opacity="0.61"/>
<path d="M478.745 322.569C478.47 322.15 478.001 321.87 477.466 321.858C477.888 322.101 478.314 322.339 478.745 322.569Z" fill="url(#paint9_linear_521_14)" fill-opacity="0.61"/>
<path d="M468.747 315.383C469.238 315.117 469.571 314.598 469.571 314C469.571 313.132 468.868 312.429 468 312.429C467.402 312.429 466.883 312.762 466.617 313.253C467.304 313.986 468.014 314.696 468.747 315.383Z" fill="url(#paint10_linear_521_14)" fill-opacity="0.61"/>
<path d="M460.142 304.534C460.13 303.999 459.85 303.53 459.431 303.255C459.661 303.686 459.899 304.112 460.142 304.534Z" fill="url(#paint11_linear_521_14)" fill-opacity="0.61"/>
<path d="M488.429 238.571C488.429 239.439 487.725 240.143 486.857 240.143C485.989 240.143 485.286 239.439 485.286 238.571C485.286 237.704 485.989 237 486.857 237C487.725 237 488.429 237.704 488.429 238.571Z" fill="url(#paint12_linear_521_14)" fill-opacity="0.61"/>
<path d="M497.857 238.571C497.857 239.439 497.154 240.143 496.286 240.143C495.418 240.143 494.714 239.439 494.714 238.571C494.714 237.704 495.418 237 496.286 237C497.154 237 497.857 237.704 497.857 238.571Z" fill="url(#paint13_linear_521_14)" fill-opacity="0.61"/>
<path d="M507.286 238.571C507.286 239.439 506.582 240.143 505.714 240.143C504.846 240.143 504.143 239.439 504.143 238.571C504.143 237.704 504.846 237 505.714 237C506.582 237 507.286 237.704 507.286 238.571Z" fill="url(#paint14_linear_521_14)" fill-opacity="0.61"/>
<path d="M516.714 238.571C516.714 239.439 516.011 240.143 515.143 240.143C514.275 240.143 513.571 239.439 513.571 238.571C513.571 237.704 514.275 237 515.143 237C516.011 237 516.714 237.704 516.714 238.571Z" fill="url(#paint15_linear_521_14)" fill-opacity="0.61"/>
<path d="M479 248C479 248.868 478.296 249.571 477.429 249.571C476.561 249.571 475.857 248.868 475.857 248C475.857 247.132 476.561 246.429 477.429 246.429C478.296 246.429 479 247.132 479 248Z" fill="url(#paint16_linear_521_14)" fill-opacity="0.61"/>
<path d="M488.429 248C488.429 248.868 487.725 249.571 486.857 249.571C485.989 249.571 485.286 248.868 485.286 248C485.286 247.132 485.989 246.429 486.857 246.429C487.725 246.429 488.429 247.132 488.429 248Z" fill="url(#paint17_linear_521_14)" fill-opacity="0.61"/>
<path d="M497.857 248C497.857 248.868 497.154 249.571 496.286 249.571C495.418 249.571 494.714 248.868 494.714 248C494.714 247.132 495.418 246.429 496.286 246.429C497.154 246.429 497.857 247.132 497.857 248Z" fill="url(#paint18_linear_521_14)" fill-opacity="0.61"/>
<path d="M507.286 248C507.286 248.868 506.582 249.571 505.714 249.571C504.846 249.571 504.143 248.868 504.143 248C504.143 247.132 504.846 246.429 505.714 246.429C506.582 246.429 507.286 247.132 507.286 248Z" fill="url(#paint19_linear_521_14)" fill-opacity="0.61"/>
<path d="M516.714 248C516.714 248.868 516.011 249.571 515.143 249.571C514.275 249.571 513.571 248.868 513.571 248C513.571 247.132 514.275 246.429 515.143 246.429C516.011 246.429 516.714 247.132 516.714 248Z" fill="url(#paint20_linear_521_14)" fill-opacity="0.61"/>
<path d="M526.143 248C526.143 248.868 525.439 249.571 524.571 249.571C523.704 249.571 523 248.868 523 248C523 247.132 523.704 246.429 524.571 246.429C525.439 246.429 526.143 247.132 526.143 248Z" fill="url(#paint21_linear_521_14)" fill-opacity="0.61"/>
<path d="M469.571 257.429C469.571 258.296 468.868 259 468 259C467.132 259 466.429 258.296 466.429 257.429C466.429 256.561 467.132 255.857 468 255.857C468.868 255.857 469.571 256.561 469.571 257.429Z" fill="url(#paint22_linear_521_14)" fill-opacity="0.61"/>
<path d="M479 257.429C479 258.296 478.296 259 477.429 259C476.561 259 475.857 258.296 475.857 257.429C475.857 256.561 476.561 255.857 477.429 255.857C478.296 255.857 479 256.561 479 257.429Z" fill="url(#paint23_linear_521_14)" fill-opacity="0.61"/>
<path d="M488.429 257.429C488.429 258.296 487.725 259 486.857 259C485.989 259 485.286 258.296 485.286 257.429C485.286 256.561 485.989 255.857 486.857 255.857C487.725 255.857 488.429 256.561 488.429 257.429Z" fill="url(#paint24_linear_521_14)" fill-opacity="0.61"/>
<path d="M497.857 257.429C497.857 258.296 497.154 259 496.286 259C495.418 259 494.714 258.296 494.714 257.429C494.714 256.561 495.418 255.857 496.286 255.857C497.154 255.857 497.857 256.561 497.857 257.429Z" fill="url(#paint25_linear_521_14)" fill-opacity="0.61"/>
<path d="M507.286 257.429C507.286 258.296 506.582 259 505.714 259C504.846 259 504.143 258.296 504.143 257.429C504.143 256.561 504.846 255.857 505.714 255.857C506.582 255.857 507.286 256.561 507.286 257.429Z" fill="url(#paint26_linear_521_14)" fill-opacity="0.61"/>
<path d="M516.714 257.429C516.714 258.296 516.011 259 515.143 259C514.275 259 513.571 258.296 513.571 257.429C513.571 256.561 514.275 255.857 515.143 255.857C516.011 255.857 516.714 256.561 516.714 257.429Z" fill="url(#paint27_linear_521_14)" fill-opacity="0.61"/>
<path d="M526.143 257.429C526.143 258.296 525.439 259 524.571 259C523.704 259 523 258.296 523 257.429C523 256.561 523.704 255.857 524.571 255.857C525.439 255.857 526.143 256.561 526.143 257.429Z" fill="url(#paint28_linear_521_14)" fill-opacity="0.61"/>
<path d="M535.571 257.429C535.571 258.296 534.868 259 534 259C533.132 259 532.429 258.296 532.429 257.429C532.429 256.561 533.132 255.857 534 255.857C534.868 255.857 535.571 256.561 535.571 257.429Z" fill="url(#paint29_linear_521_14)" fill-opacity="0.61"/>
<path d="M460.143 266.857C460.143 267.725 459.439 268.429 458.571 268.429C457.704 268.429 457 267.725 457 266.857C457 265.989 457.704 265.286 458.571 265.286C459.439 265.286 460.143 265.989 460.143 266.857Z" fill="url(#paint30_linear_521_14)" fill-opacity="0.61"/>
<path d="M469.571 266.857C469.571 267.725 468.868 268.429 468 268.429C467.132 268.429 466.429 267.725 466.429 266.857C466.429 265.989 467.132 265.286 468 265.286C468.868 265.286 469.571 265.989 469.571 266.857Z" fill="url(#paint31_linear_521_14)" fill-opacity="0.61"/>
<path d="M479 266.857C479 267.725 478.296 268.429 477.429 268.429C476.561 268.429 475.857 267.725 475.857 266.857C475.857 265.989 476.561 265.286 477.429 265.286C478.296 265.286 479 265.989 479 266.857Z" fill="url(#paint32_linear_521_14)" fill-opacity="0.61"/>
<path d="M488.429 266.857C488.429 267.725 487.725 268.429 486.857 268.429C485.989 268.429 485.286 267.725 485.286 266.857C485.286 265.989 485.989 265.286 486.857 265.286C487.725 265.286 488.429 265.989 488.429 266.857Z" fill="url(#paint33_linear_521_14)" fill-opacity="0.61"/>
<path d="M497.857 266.857C497.857 267.725 497.154 268.429 496.286 268.429C495.418 268.429 494.714 267.725 494.714 266.857C494.714 265.989 495.418 265.286 496.286 265.286C497.154 265.286 497.857 265.989 497.857 266.857Z" fill="url(#paint34_linear_521_14)" fill-opacity="0.61"/>
<path d="M507.286 266.857C507.286 267.725 506.582 268.429 505.714 268.429C504.846 268.429 504.143 267.725 504.143 266.857C504.143 265.989 504.846 265.286 505.714 265.286C506.582 265.286 507.286 265.989 507.286 266.857Z" fill="url(#paint35_linear_521_14)" fill-opacity="0.61"/>
<path d="M516.714 266.857C516.714 267.725 516.011 268.429 515.143 268.429C514.275 268.429 513.571 267.725 513.571 266.857C513.571 265.989 514.275 265.286 515.143 265.286C516.011 265.286 516.714 265.989 516.714 266.857Z" fill="url(#paint36_linear_521_14)" fill-opacity="0.61"/>
<path d="M526.143 266.857C526.143 267.725 525.439 268.429 524.571 268.429C523.704 268.429 523 267.725 523 266.857C523 265.989 523.704 265.286 524.571 265.286C525.439 265.286 526.143 265.989 526.143 266.857Z" fill="url(#paint37_linear_521_14)" fill-opacity="0.61"/>
<path d="M535.571 266.857C535.571 267.725 534.868 268.429 534 268.429C533.132 268.429 532.429 267.725 532.429 266.857C532.429 265.989 533.132 265.286 534 265.286C534.868 265.286 535.571 265.989 535.571 266.857Z" fill="url(#paint38_linear_521_14)" fill-opacity="0.61"/>
<path d="M545 266.857C545 267.725 544.296 268.429 543.429 268.429C542.561 268.429 541.857 267.725 541.857 266.857C541.857 265.989 542.561 265.286 543.429 265.286C544.296 265.286 545 265.989 545 266.857Z" fill="url(#paint39_linear_521_14)" fill-opacity="0.61"/>
<path d="M460.143 276.286C460.143 277.154 459.439 277.857 458.571 277.857C457.704 277.857 457 277.154 457 276.286C457 275.418 457.704 274.714 458.571 274.714C459.439 274.714 460.143 275.418 460.143 276.286Z" fill="url(#paint40_linear_521_14)" fill-opacity="0.61"/>
<path d="M469.571 276.286C469.571 277.154 468.868 277.857 468 277.857C467.132 277.857 466.429 277.154 466.429 276.286C466.429 275.418 467.132 274.714 468 274.714C468.868 274.714 469.571 275.418 469.571 276.286Z" fill="url(#paint41_linear_521_14)" fill-opacity="0.61"/>
<path d="M479 276.286C479 277.154 478.296 277.857 477.429 277.857C476.561 277.857 475.857 277.154 475.857 276.286C475.857 275.418 476.561 274.714 477.429 274.714C478.296 274.714 479 275.418 479 276.286Z" fill="url(#paint42_linear_521_14)" fill-opacity="0.61"/>
<path d="M488.429 276.286C488.429 277.154 487.725 277.857 486.857 277.857C485.989 277.857 485.286 277.154 485.286 276.286C485.286 275.418 485.989 274.714 486.857 274.714C487.725 274.714 488.429 275.418 488.429 276.286Z" fill="url(#paint43_linear_521_14)" fill-opacity="0.61"/>
<path d="M497.857 276.286C497.857 277.154 497.154 277.857 496.286 277.857C495.418 277.857 494.714 277.154 494.714 276.286C494.714 275.418 495.418 274.714 496.286 274.714C497.154 274.714 497.857 275.418 497.857 276.286Z" fill="url(#paint44_linear_521_14)" fill-opacity="0.61"/>
<path d="M507.286 276.286C507.286 277.154 506.582 277.857 505.714 277.857C504.846 277.857 504.143 277.154 504.143 276.286C504.143 275.418 504.846 274.714 505.714 274.714C506.582 274.714 507.286 275.418 507.286 276.286Z" fill="url(#paint45_linear_521_14)" fill-opacity="0.61"/>
<path d="M516.714 276.286C516.714 277.154 516.011 277.857 515.143 277.857C514.275 277.857 513.571 277.154 513.571 276.286C513.571 275.418 514.275 274.714 515.143 274.714C516.011 274.714 516.714 275.418 516.714 276.286Z" fill="url(#paint46_linear_521_14)" fill-opacity="0.61"/>
<path d="M526.143 276.286C526.143 277.154 525.439 277.857 524.571 277.857C523.704 277.857 523 277.154 523 276.286C523 275.418 523.704 274.714 524.571 274.714C525.439 274.714 526.143 275.418 526.143 276.286Z" fill="url(#paint47_linear_521_14)" fill-opacity="0.61"/>
<path d="M535.571 276.286C535.571 277.154 534.868 277.857 534 277.857C533.132 277.857 532.429 277.154 532.429 276.286C532.429 275.418 533.132 274.714 534 274.714C534.868 274.714 535.571 275.418 535.571 276.286Z" fill="url(#paint48_linear_521_14)" fill-opacity="0.61"/>
<path d="M545 276.286C545 277.154 544.296 277.857 543.429 277.857C542.561 277.857 541.857 277.154 541.857 276.286C541.857 275.418 542.561 274.714 543.429 274.714C544.296 274.714 545 275.418 545 276.286Z" fill="url(#paint49_linear_521_14)" fill-opacity="0.61"/>
<path d="M460.143 285.714C460.143 286.582 459.439 287.286 458.571 287.286C457.704 287.286 457 286.582 457 285.714C457 284.846 457.704 284.143 458.571 284.143C459.439 284.143 460.143 284.846 460.143 285.714Z" fill="url(#paint50_linear_521_14)" fill-opacity="0.61"/>
<path d="M469.571 285.714C469.571 286.582 468.868 287.286 468 287.286C467.132 287.286 466.429 286.582 466.429 285.714C466.429 284.846 467.132 284.143 468 284.143C468.868 284.143 469.571 284.846 469.571 285.714Z" fill="url(#paint51_linear_521_14)" fill-opacity="0.61"/>
<path d="M479 285.714C479 286.582 478.296 287.286 477.429 287.286C476.561 287.286 475.857 286.582 475.857 285.714C475.857 284.846 476.561 284.143 477.429 284.143C478.296 284.143 479 284.846 479 285.714Z" fill="url(#paint52_linear_521_14)" fill-opacity="0.61"/>
<path d="M488.429 285.714C488.429 286.582 487.725 287.286 486.857 287.286C485.989 287.286 485.286 286.582 485.286 285.714C485.286 284.846 485.989 284.143 486.857 284.143C487.725 284.143 488.429 284.846 488.429 285.714Z" fill="url(#paint53_linear_521_14)" fill-opacity="0.61"/>
<path d="M497.857 285.714C497.857 286.582 497.154 287.286 496.286 287.286C495.418 287.286 494.714 286.582 494.714 285.714C494.714 284.846 495.418 284.143 496.286 284.143C497.154 284.143 497.857 284.846 497.857 285.714Z" fill="url(#paint54_linear_521_14)" fill-opacity="0.61"/>
<path d="M507.286 285.714C507.286 286.582 506.582 287.286 505.714 287.286C504.846 287.286 504.143 286.582 504.143 285.714C504.143 284.846 504.846 284.143 505.714 284.143C506.582 284.143 507.286 284.846 507.286 285.714Z" fill="url(#paint55_linear_521_14)" fill-opacity="0.61"/>
<path d="M516.714 285.714C516.714 286.582 516.011 287.286 515.143 287.286C514.275 287.286 513.571 286.582 513.571 285.714C513.571 284.846 514.275 284.143 515.143 284.143C516.011 284.143 516.714 284.846 516.714 285.714Z" fill="url(#paint56_linear_521_14)" fill-opacity="0.61"/>
<path d="M526.143 285.714C526.143 286.582 525.439 287.286 524.571 287.286C523.704 287.286 523 286.582 523 285.714C523 284.846 523.704 284.143 524.571 284.143C525.439 284.143 526.143 284.846 526.143 285.714Z" fill="url(#paint57_linear_521_14)" fill-opacity="0.61"/>
<path d="M535.571 285.714C535.571 286.582 534.868 287.286 534 287.286C533.132 287.286 532.429 286.582 532.429 285.714C532.429 284.846 533.132 284.143 534 284.143C534.868 284.143 535.571 284.846 535.571 285.714Z" fill="url(#paint58_linear_521_14)" fill-opacity="0.61"/>
<path d="M545 285.714C545 286.582 544.296 287.286 543.429 287.286C542.561 287.286 541.857 286.582 541.857 285.714C541.857 284.846 542.561 284.143 543.429 284.143C544.296 284.143 545 284.846 545 285.714Z" fill="url(#paint59_linear_521_14)" fill-opacity="0.61"/>
<path d="M460.143 295.143C460.143 296.011 459.439 296.714 458.571 296.714C457.704 296.714 457 296.011 457 295.143C457 294.275 457.704 293.571 458.571 293.571C459.439 293.571 460.143 294.275 460.143 295.143Z" fill="url(#paint60_linear_521_14)" fill-opacity="0.61"/>
<path d="M469.571 295.143C469.571 296.011 468.868 296.714 468 296.714C467.132 296.714 466.429 296.011 466.429 295.143C466.429 294.275 467.132 293.571 468 293.571C468.868 293.571 469.571 294.275 469.571 295.143Z" fill="url(#paint61_linear_521_14)" fill-opacity="0.61"/>
<path d="M479 295.143C479 296.011 478.296 296.714 477.429 296.714C476.561 296.714 475.857 296.011 475.857 295.143C475.857 294.275 476.561 293.571 477.429 293.571C478.296 293.571 479 294.275 479 295.143Z" fill="url(#paint62_linear_521_14)" fill-opacity="0.61"/>
<path d="M488.429 295.143C488.429 296.011 487.725 296.714 486.857 296.714C485.989 296.714 485.286 296.011 485.286 295.143C485.286 294.275 485.989 293.571 486.857 293.571C487.725 293.571 488.429 294.275 488.429 295.143Z" fill="url(#paint63_linear_521_14)" fill-opacity="0.61"/>
<path d="M497.857 295.143C497.857 296.011 497.154 296.714 496.286 296.714C495.418 296.714 494.714 296.011 494.714 295.143C494.714 294.275 495.418 293.571 496.286 293.571C497.154 293.571 497.857 294.275 497.857 295.143Z" fill="url(#paint64_linear_521_14)" fill-opacity="0.61"/>
<path d="M507.286 295.143C507.286 296.011 506.582 296.714 505.714 296.714C504.846 296.714 504.143 296.011 504.143 295.143C504.143 294.275 504.846 293.571 505.714 293.571C506.582 293.571 507.286 294.275 507.286 295.143Z" fill="url(#paint65_linear_521_14)" fill-opacity="0.61"/>
<path d="M516.714 295.143C516.714 296.011 516.011 296.714 515.143 296.714C514.275 296.714 513.571 296.011 513.571 295.143C513.571 294.275 514.275 293.571 515.143 293.571C516.011 293.571 516.714 294.275 516.714 295.143Z" fill="url(#paint66_linear_521_14)" fill-opacity="0.61"/>
<path d="M526.143 295.143C526.143 296.011 525.439 296.714 524.571 296.714C523.704 296.714 523 296.011 523 295.143C523 294.275 523.704 293.571 524.571 293.571C525.439 293.571 526.143 294.275 526.143 295.143Z" fill="url(#paint67_linear_521_14)" fill-opacity="0.61"/>
<path d="M535.571 295.143C535.571 296.011 534.868 296.714 534 296.714C533.132 296.714 532.429 296.011 532.429 295.143C532.429 294.275 533.132 293.571 534 293.571C534.868 293.571 535.571 294.275 535.571 295.143Z" fill="url(#paint68_linear_521_14)" fill-opacity="0.61"/>
<path d="M545 295.143C545 296.011 544.296 296.714 543.429 296.714C542.561 296.714 541.857 296.011 541.857 295.143C541.857 294.275 542.561 293.571 543.429 293.571C544.296 293.571 545 294.275 545 295.143Z" fill="url(#paint69_linear_521_14)" fill-opacity="0.61"/>
<path d="M469.571 304.571C469.571 305.439 468.868 306.143 468 306.143C467.132 306.143 466.429 305.439 466.429 304.571C466.429 303.704 467.132 303 468 303C468.868 303 469.571 303.704 469.571 304.571Z" fill="url(#paint70_linear_521_14)" fill-opacity="0.61"/>
<path d="M479 304.571C479 305.439 478.296 306.143 477.429 306.143C476.561 306.143 475.857 305.439 475.857 304.571C475.857 303.704 476.561 303 477.429 303C478.296 303 479 303.704 479 304.571Z" fill="url(#paint71_linear_521_14)" fill-opacity="0.61"/>
<path d="M488.429 304.571C488.429 305.439 487.725 306.143 486.857 306.143C485.989 306.143 485.286 305.439 485.286 304.571C485.286 303.704 485.989 303 486.857 303C487.725 303 488.429 303.704 488.429 304.571Z" fill="url(#paint72_linear_521_14)" fill-opacity="0.61"/>
<path d="M497.857 304.571C497.857 305.439 497.154 306.143 496.286 306.143C495.418 306.143 494.714 305.439 494.714 304.571C494.714 303.704 495.418 303 496.286 303C497.154 303 497.857 303.704 497.857 304.571Z" fill="url(#paint73_linear_521_14)" fill-opacity="0.61"/>
<path d="M507.286 304.571C507.286 305.439 506.582 306.143 505.714 306.143C504.846 306.143 504.143 305.439 504.143 304.571C504.143 303.704 504.846 303 505.714 303C506.582 303 507.286 303.704 507.286 304.571Z" fill="url(#paint74_linear_521_14)" fill-opacity="0.61"/>
<path d="M516.714 304.571C516.714 305.439 516.011 306.143 515.143 306.143C514.275 306.143 513.571 305.439 513.571 304.571C513.571 303.704 514.275 303 515.143 303C516.011 303 516.714 303.704 516.714 304.571Z" fill="url(#paint75_linear_521_14)" fill-opacity="0.61"/>
<path d="M526.143 304.571C526.143 305.439 525.439 306.143 524.571 306.143C523.704 306.143 523 305.439 523 304.571C523 303.704 523.704 303 524.571 303C525.439 303 526.143 303.704 526.143 304.571Z" fill="url(#paint76_linear_521_14)" fill-opacity="0.61"/>
<path d="M535.571 304.571C535.571 305.439 534.868 306.143 534 306.143C533.132 306.143 532.429 305.439 532.429 304.571C532.429 303.704 533.132 303 534 303C534.868 303 535.571 303.704 535.571 304.571Z" fill="url(#paint77_linear_521_14)" fill-opacity="0.61"/>
<path d="M479 314C479 314.868 478.296 315.571 477.429 315.571C476.561 315.571 475.857 314.868 475.857 314C475.857 313.132 476.561 312.429 477.429 312.429C478.296 312.429 479 313.132 479 314Z" fill="url(#paint78_linear_521_14)" fill-opacity="0.61"/>
<path d="M488.429 314C488.429 314.868 487.725 315.571 486.857 315.571C485.989 315.571 485.286 314.868 485.286 314C485.286 313.132 485.989 312.429 486.857 312.429C487.725 312.429 488.429 313.132 488.429 314Z" fill="url(#paint79_linear_521_14)" fill-opacity="0.61"/>
<path d="M497.857 314C497.857 314.868 497.154 315.571 496.286 315.571C495.418 315.571 494.714 314.868 494.714 314C494.714 313.132 495.418 312.429 496.286 312.429C497.154 312.429 497.857 313.132 497.857 314Z" fill="url(#paint80_linear_521_14)" fill-opacity="0.61"/>
<path d="M507.286 314C507.286 314.868 506.582 315.571 505.714 315.571C504.846 315.571 504.143 314.868 504.143 314C504.143 313.132 504.846 312.429 505.714 312.429C506.582 312.429 507.286 313.132 507.286 314Z" fill="url(#paint81_linear_521_14)" fill-opacity="0.61"/>
<path d="M516.714 314C516.714 314.868 516.011 315.571 515.143 315.571C514.275 315.571 513.571 314.868 513.571 314C513.571 313.132 514.275 312.429 515.143 312.429C516.011 312.429 516.714 313.132 516.714 314Z" fill="url(#paint82_linear_521_14)" fill-opacity="0.61"/>
<path d="M526.143 314C526.143 314.868 525.439 315.571 524.571 315.571C523.704 315.571 523 314.868 523 314C523 313.132 523.704 312.429 524.571 312.429C525.439 312.429 526.143 313.132 526.143 314Z" fill="url(#paint83_linear_521_14)" fill-opacity="0.61"/>
<path d="M488.429 323.429C488.429 324.296 487.725 325 486.857 325C485.989 325 485.286 324.296 485.286 323.429C485.286 322.561 485.989 321.857 486.857 321.857C487.725 321.857 488.429 322.561 488.429 323.429Z" fill="url(#paint84_linear_521_14)" fill-opacity="0.61"/>
<path d="M497.857 323.429C497.857 324.296 497.154 325 496.286 325C495.418 325 494.714 324.296 494.714 323.429C494.714 322.561 495.418 321.857 496.286 321.857C497.154 321.857 497.857 322.561 497.857 323.429Z" fill="url(#paint85_linear_521_14)" fill-opacity="0.61"/>
<path d="M507.286 323.429C507.286 324.296 506.582 325 505.714 325C504.846 325 504.143 324.296 504.143 323.429C504.143 322.561 504.846 321.857 505.714 321.857C506.582 321.857 507.286 322.561 507.286 323.429Z" fill="url(#paint86_linear_521_14)" fill-opacity="0.61"/>
<path d="M516.714 323.429C516.714 324.296 516.011 325 515.143 325C514.275 325 513.571 324.296 513.571 323.429C513.571 322.561 514.275 321.857 515.143 321.857C516.011 321.857 516.714 322.561 516.714 323.429Z" fill="url(#paint87_linear_521_14)" fill-opacity="0.61"/>
<path opacity="0.5" fill-rule="evenodd" clip-rule="evenodd" d="M253.484 182.486L248.645 187.325L254.291 192.971L248.645 198.616L253.484 203.455L259.13 197.81L264.775 203.455L269.614 198.616L263.969 192.971L269.614 187.325L264.775 182.486L259.13 188.132L253.484 182.486ZM255.972 192.971L250.327 198.616L255.166 203.455L260.811 197.81L266.457 203.455L271.296 198.616L265.65 192.971L271.296 187.325L266.457 182.486L260.811 188.132L255.166 182.486L250.327 187.325L255.972 192.971ZM250.933 187.325L256.578 192.971L250.933 198.616L255.166 202.849L260.811 197.204L266.457 202.849L270.69 198.616L265.044 192.971L270.69 187.325L266.457 183.092L260.811 188.738L255.166 183.092L250.933 187.325Z" fill="white" fill-opacity="0.7"/>
<path d="M503 30L506.394 42.6059L519 46L506.394 49.3941L503 62L499.606 49.3941L487 46L499.606 42.6059L503 30Z" fill="white"/>
<path d="M722 84L724.121 91.8787L732 94L724.121 96.1213L722 104L719.879 96.1213L712 94L719.879 91.8787L722 84Z" fill="white"/>
<path d="M-74.6471 23.6765C-74.6471 24.6024 -75.3976 25.3529 -76.3235 25.3529C-77.2494 25.3529 -78 24.6024 -78 23.6765C-78 22.7506 -77.2494 22 -76.3235 22C-75.3976 22 -74.6471 22.7506 -74.6471 23.6765Z" fill="white" fill-opacity="0.31"/>
<path d="M-64.5882 23.6765C-64.5882 24.6024 -65.3388 25.3529 -66.2647 25.3529C-67.1906 25.3529 -67.9412 24.6024 -67.9412 23.6765C-67.9412 22.7506 -67.1906 22 -66.2647 22C-65.3388 22 -64.5882 22.7506 -64.5882 23.6765Z" fill="white" fill-opacity="0.31"/>
<path d="M-54.5294 23.6765C-54.5294 24.6024 -55.28 25.3529 -56.2058 25.3529C-57.1317 25.3529 -57.8823 24.6024 -57.8823 23.6765C-57.8823 22.7506 -57.1317 22 -56.2058 22C-55.28 22 -54.5294 22.7506 -54.5294 23.6765Z" fill="white" fill-opacity="0.31"/>
<path d="M-44.4705 23.6765C-44.4705 24.6024 -45.2211 25.3529 -46.147 25.3529C-47.0729 25.3529 -47.8235 24.6024 -47.8235 23.6765C-47.8235 22.7506 -47.0729 22 -46.147 22C-45.2211 22 -44.4705 22.7506 -44.4705 23.6765Z" fill="white" fill-opacity="0.31"/>
<path d="M-34.4117 23.6765C-34.4117 24.6024 -35.1623 25.3529 -36.0882 25.3529C-37.0141 25.3529 -37.7646 24.6024 -37.7646 23.6765C-37.7646 22.7506 -37.0141 22 -36.0882 22C-35.1623 22 -34.4117 22.7506 -34.4117 23.6765Z" fill="white" fill-opacity="0.31"/>
<path d="M-24.3529 23.6765C-24.3529 24.6024 -25.1034 25.3529 -26.0293 25.3529C-26.9552 25.3529 -27.7058 24.6024 -27.7058 23.6765C-27.7058 22.7506 -26.9552 22 -26.0293 22C-25.1034 22 -24.3529 22.7506 -24.3529 23.6765Z" fill="white" fill-opacity="0.31"/>
<path d="M-14.294 23.6765C-14.294 24.6024 -15.0446 25.3529 -15.9705 25.3529C-16.8964 25.3529 -17.647 24.6024 -17.647 23.6765C-17.647 22.7506 -16.8964 22 -15.9705 22C-15.0446 22 -14.294 22.7506 -14.294 23.6765Z" fill="white" fill-opacity="0.31"/>
<path d="M-4.23518 23.6765C-4.23518 24.6024 -4.98577 25.3529 -5.91166 25.3529C-6.83755 25.3529 -7.58813 24.6024 -7.58813 23.6765C-7.58813 22.7506 -6.83755 22 -5.91166 22C-4.98577 22 -4.23518 22.7506 -4.23518 23.6765Z" fill="white" fill-opacity="0.31"/>
<path d="M5.82366 23.6765C5.82366 24.6024 5.07307 25.3529 4.14718 25.3529C3.22129 25.3529 2.47071 24.6024 2.47071 23.6765C2.47071 22.7506 3.22129 22 4.14718 22C5.07307 22 5.82366 22.7506 5.82366 23.6765Z" fill="white" fill-opacity="0.31"/>
<path d="M15.8825 23.6765C15.8825 24.6024 15.1319 25.3529 14.206 25.3529C13.2801 25.3529 12.5295 24.6024 12.5295 23.6765C12.5295 22.7506 13.2801 22 14.206 22C15.1319 22 15.8825 22.7506 15.8825 23.6765Z" fill="white" fill-opacity="0.31"/>
<path d="M25.9413 23.6765C25.9413 24.6024 25.1907 25.3529 24.2649 25.3529C23.339 25.3529 22.5884 24.6024 22.5884 23.6765C22.5884 22.7506 23.339 22 24.2649 22C25.1907 22 25.9413 22.7506 25.9413 23.6765Z" fill="white" fill-opacity="0.31"/>
<path d="M-74.6471 33.7353C-74.6471 34.6612 -75.3976 35.4118 -76.3235 35.4118C-77.2494 35.4118 -78 34.6612 -78 33.7353C-78 32.8094 -77.2494 32.0588 -76.3235 32.0588C-75.3976 32.0588 -74.6471 32.8094 -74.6471 33.7353Z" fill="white" fill-opacity="0.31"/>
<path d="M-64.5882 33.7353C-64.5882 34.6612 -65.3388 35.4118 -66.2647 35.4118C-67.1906 35.4118 -67.9412 34.6612 -67.9412 33.7353C-67.9412 32.8094 -67.1906 32.0588 -66.2647 32.0588C-65.3388 32.0588 -64.5882 32.8094 -64.5882 33.7353Z" fill="white" fill-opacity="0.31"/>
<path d="M-54.5294 33.7353C-54.5294 34.6612 -55.28 35.4118 -56.2058 35.4118C-57.1317 35.4118 -57.8823 34.6612 -57.8823 33.7353C-57.8823 32.8094 -57.1317 32.0588 -56.2058 32.0588C-55.28 32.0588 -54.5294 32.8094 -54.5294 33.7353Z" fill="white" fill-opacity="0.31"/>
<path d="M-44.4705 33.7353C-44.4705 34.6612 -45.2211 35.4118 -46.147 35.4118C-47.0729 35.4118 -47.8235 34.6612 -47.8235 33.7353C-47.8235 32.8094 -47.0729 32.0588 -46.147 32.0588C-45.2211 32.0588 -44.4705 32.8094 -44.4705 33.7353Z" fill="white" fill-opacity="0.31"/>
<path d="M-34.4117 33.7353C-34.4117 34.6612 -35.1623 35.4118 -36.0882 35.4118C-37.0141 35.4118 -37.7646 34.6612 -37.7646 33.7353C-37.7646 32.8094 -37.0141 32.0588 -36.0882 32.0588C-35.1623 32.0588 -34.4117 32.8094 -34.4117 33.7353Z" fill="white" fill-opacity="0.31"/>
<path d="M-24.3529 33.7353C-24.3529 34.6612 -25.1034 35.4118 -26.0293 35.4118C-26.9552 35.4118 -27.7058 34.6612 -27.7058 33.7353C-27.7058 32.8094 -26.9552 32.0588 -26.0293 32.0588C-25.1034 32.0588 -24.3529 32.8094 -24.3529 33.7353Z" fill="white" fill-opacity="0.31"/>
<path d="M-14.294 33.7353C-14.294 34.6612 -15.0446 35.4118 -15.9705 35.4118C-16.8964 35.4118 -17.647 34.6612 -17.647 33.7353C-17.647 32.8094 -16.8964 32.0588 -15.9705 32.0588C-15.0446 32.0588 -14.294 32.8094 -14.294 33.7353Z" fill="white" fill-opacity="0.31"/>
<path d="M-4.23518 33.7353C-4.23518 34.6612 -4.98577 35.4118 -5.91166 35.4118C-6.83755 35.4118 -7.58813 34.6612 -7.58813 33.7353C-7.58813 32.8094 -6.83755 32.0588 -5.91166 32.0588C-4.98577 32.0588 -4.23518 32.8094 -4.23518 33.7353Z" fill="white" fill-opacity="0.31"/>
<path d="M5.82366 33.7353C5.82366 34.6612 5.07307 35.4118 4.14718 35.4118C3.22129 35.4118 2.47071 34.6612 2.47071 33.7353C2.47071 32.8094 3.22129 32.0588 4.14718 32.0588C5.07307 32.0588 5.82366 32.8094 5.82366 33.7353Z" fill="white" fill-opacity="0.31"/>
<path d="M15.8825 33.7353C15.8825 34.6612 15.1319 35.4118 14.206 35.4118C13.2801 35.4118 12.5295 34.6612 12.5295 33.7353C12.5295 32.8094 13.2801 32.0588 14.206 32.0588C15.1319 32.0588 15.8825 32.8094 15.8825 33.7353Z" fill="white" fill-opacity="0.31"/>
<path d="M25.9413 33.7353C25.9413 34.6612 25.1907 35.4118 24.2649 35.4118C23.339 35.4118 22.5884 34.6612 22.5884 33.7353C22.5884 32.8094 23.339 32.0588 24.2649 32.0588C25.1907 32.0588 25.9413 32.8094 25.9413 33.7353Z" fill="white" fill-opacity="0.31"/>
<path d="M-74.6471 43.7941C-74.6471 44.72 -75.3976 45.4706 -76.3235 45.4706C-77.2494 45.4706 -78 44.72 -78 43.7941C-78 42.8682 -77.2494 42.1176 -76.3235 42.1176C-75.3976 42.1176 -74.6471 42.8682 -74.6471 43.7941Z" fill="white" fill-opacity="0.31"/>
<path d="M-64.5882 43.7941C-64.5882 44.72 -65.3388 45.4706 -66.2647 45.4706C-67.1906 45.4706 -67.9412 44.72 -67.9412 43.7941C-67.9412 42.8682 -67.1906 42.1176 -66.2647 42.1176C-65.3388 42.1176 -64.5882 42.8682 -64.5882 43.7941Z" fill="white" fill-opacity="0.31"/>
<path d="M-54.5294 43.7941C-54.5294 44.72 -55.28 45.4706 -56.2058 45.4706C-57.1317 45.4706 -57.8823 44.72 -57.8823 43.7941C-57.8823 42.8682 -57.1317 42.1176 -56.2058 42.1176C-55.28 42.1176 -54.5294 42.8682 -54.5294 43.7941Z" fill="white" fill-opacity="0.31"/>
<path d="M-44.4705 43.7941C-44.4705 44.72 -45.2211 45.4706 -46.147 45.4706C-47.0729 45.4706 -47.8235 44.72 -47.8235 43.7941C-47.8235 42.8682 -47.0729 42.1176 -46.147 42.1176C-45.2211 42.1176 -44.4705 42.8682 -44.4705 43.7941Z" fill="white" fill-opacity="0.31"/>
<path d="M-34.4117 43.7941C-34.4117 44.72 -35.1623 45.4706 -36.0882 45.4706C-37.0141 45.4706 -37.7646 44.72 -37.7646 43.7941C-37.7646 42.8682 -37.0141 42.1176 -36.0882 42.1176C-35.1623 42.1176 -34.4117 42.8682 -34.4117 43.7941Z" fill="white" fill-opacity="0.31"/>
<path d="M-24.3529 43.7941C-24.3529 44.72 -25.1034 45.4706 -26.0293 45.4706C-26.9552 45.4706 -27.7058 44.72 -27.7058 43.7941C-27.7058 42.8682 -26.9552 42.1176 -26.0293 42.1176C-25.1034 42.1176 -24.3529 42.8682 -24.3529 43.7941Z" fill="white" fill-opacity="0.31"/>
<path d="M-14.294 43.7941C-14.294 44.72 -15.0446 45.4706 -15.9705 45.4706C-16.8964 45.4706 -17.647 44.72 -17.647 43.7941C-17.647 42.8682 -16.8964 42.1176 -15.9705 42.1176C-15.0446 42.1176 -14.294 42.8682 -14.294 43.7941Z" fill="white" fill-opacity="0.31"/>
<path d="M-4.23518 43.7941C-4.23518 44.72 -4.98577 45.4706 -5.91166 45.4706C-6.83755 45.4706 -7.58813 44.72 -7.58813 43.7941C-7.58813 42.8682 -6.83755 42.1176 -5.91166 42.1176C-4.98577 42.1176 -4.23518 42.8682 -4.23518 43.7941Z" fill="white" fill-opacity="0.31"/>
<path d="M5.82366 43.7941C5.82366 44.72 5.07307 45.4706 4.14718 45.4706C3.22129 45.4706 2.47071 44.72 2.47071 43.7941C2.47071 42.8682 3.22129 42.1176 4.14718 42.1176C5.07307 42.1176 5.82366 42.8682 5.82366 43.7941Z" fill="white" fill-opacity="0.31"/>
<path d="M15.8825 43.7941C15.8825 44.72 15.1319 45.4706 14.206 45.4706C13.2801 45.4706 12.5295 44.72 12.5295 43.7941C12.5295 42.8682 13.2801 42.1176 14.206 42.1176C15.1319 42.1176 15.8825 42.8682 15.8825 43.7941Z" fill="white" fill-opacity="0.31"/>
<path d="M25.9413 43.7941C25.9413 44.72 25.1907 45.4706 24.2649 45.4706C23.339 45.4706 22.5884 44.72 22.5884 43.7941C22.5884 42.8682 23.339 42.1176 24.2649 42.1176C25.1907 42.1176 25.9413 42.8682 25.9413 43.7941Z" fill="white" fill-opacity="0.31"/>
<path d="M-74.6471 53.8529C-74.6471 54.7788 -75.3976 55.5294 -76.3235 55.5294C-77.2494 55.5294 -78 54.7788 -78 53.8529C-78 52.9271 -77.2494 52.1765 -76.3235 52.1765C-75.3976 52.1765 -74.6471 52.9271 -74.6471 53.8529Z" fill="white" fill-opacity="0.31"/>
<path d="M-64.5882 53.8529C-64.5882 54.7788 -65.3388 55.5294 -66.2647 55.5294C-67.1906 55.5294 -67.9412 54.7788 -67.9412 53.8529C-67.9412 52.9271 -67.1906 52.1765 -66.2647 52.1765C-65.3388 52.1765 -64.5882 52.9271 -64.5882 53.8529Z" fill="white" fill-opacity="0.31"/>
<path d="M-54.5294 53.8529C-54.5294 54.7788 -55.28 55.5294 -56.2058 55.5294C-57.1317 55.5294 -57.8823 54.7788 -57.8823 53.8529C-57.8823 52.9271 -57.1317 52.1765 -56.2058 52.1765C-55.28 52.1765 -54.5294 52.9271 -54.5294 53.8529Z" fill="white" fill-opacity="0.31"/>
<path d="M-44.4705 53.8529C-44.4705 54.7788 -45.2211 55.5294 -46.147 55.5294C-47.0729 55.5294 -47.8235 54.7788 -47.8235 53.8529C-47.8235 52.9271 -47.0729 52.1765 -46.147 52.1765C-45.2211 52.1765 -44.4705 52.9271 -44.4705 53.8529Z" fill="white" fill-opacity="0.31"/>
<path d="M-34.4117 53.8529C-34.4117 54.7788 -35.1623 55.5294 -36.0882 55.5294C-37.0141 55.5294 -37.7646 54.7788 -37.7646 53.8529C-37.7646 52.9271 -37.0141 52.1765 -36.0882 52.1765C-35.1623 52.1765 -34.4117 52.9271 -34.4117 53.8529Z" fill="white" fill-opacity="0.31"/>
<path d="M-24.3529 53.8529C-24.3529 54.7788 -25.1034 55.5294 -26.0293 55.5294C-26.9552 55.5294 -27.7058 54.7788 -27.7058 53.8529C-27.7058 52.9271 -26.9552 52.1765 -26.0293 52.1765C-25.1034 52.1765 -24.3529 52.9271 -24.3529 53.8529Z" fill="white" fill-opacity="0.31"/>
<path d="M-14.294 53.8529C-14.294 54.7788 -15.0446 55.5294 -15.9705 55.5294C-16.8964 55.5294 -17.647 54.7788 -17.647 53.8529C-17.647 52.9271 -16.8964 52.1765 -15.9705 52.1765C-15.0446 52.1765 -14.294 52.9271 -14.294 53.8529Z" fill="white" fill-opacity="0.31"/>
<path d="M-4.23518 53.8529C-4.23518 54.7788 -4.98577 55.5294 -5.91166 55.5294C-6.83755 55.5294 -7.58813 54.7788 -7.58813 53.8529C-7.58813 52.9271 -6.83755 52.1765 -5.91166 52.1765C-4.98577 52.1765 -4.23518 52.9271 -4.23518 53.8529Z" fill="white" fill-opacity="0.31"/>
<path d="M5.82366 53.8529C5.82366 54.7788 5.07307 55.5294 4.14718 55.5294C3.22129 55.5294 2.47071 54.7788 2.47071 53.8529C2.47071 52.9271 3.22129 52.1765 4.14718 52.1765C5.07307 52.1765 5.82366 52.9271 5.82366 53.8529Z" fill="white" fill-opacity="0.31"/>
<path d="M15.8825 53.8529C15.8825 54.7788 15.1319 55.5294 14.206 55.5294C13.2801 55.5294 12.5295 54.7788 12.5295 53.8529C12.5295 52.9271 13.2801 52.1765 14.206 52.1765C15.1319 52.1765 15.8825 52.9271 15.8825 53.8529Z" fill="white" fill-opacity="0.31"/>
<path d="M25.9413 53.8529C25.9413 54.7788 25.1907 55.5294 24.2649 55.5294C23.339 55.5294 22.5884 54.7788 22.5884 53.8529C22.5884 52.9271 23.339 52.1765 24.2649 52.1765C25.1907 52.1765 25.9413 52.9271 25.9413 53.8529Z" fill="white" fill-opacity="0.31"/>
<path d="M-74.6471 63.9118C-74.6471 64.8377 -75.3976 65.5882 -76.3235 65.5882C-77.2494 65.5882 -78 64.8377 -78 63.9118C-78 62.9859 -77.2494 62.2353 -76.3235 62.2353C-75.3976 62.2353 -74.6471 62.9859 -74.6471 63.9118Z" fill="white" fill-opacity="0.31"/>
<path d="M-64.5882 63.9118C-64.5882 64.8377 -65.3388 65.5882 -66.2647 65.5882C-67.1906 65.5882 -67.9412 64.8377 -67.9412 63.9118C-67.9412 62.9859 -67.1906 62.2353 -66.2647 62.2353C-65.3388 62.2353 -64.5882 62.9859 -64.5882 63.9118Z" fill="white" fill-opacity="0.31"/>
<path d="M-54.5294 63.9118C-54.5294 64.8377 -55.28 65.5882 -56.2058 65.5882C-57.1317 65.5882 -57.8823 64.8377 -57.8823 63.9118C-57.8823 62.9859 -57.1317 62.2353 -56.2058 62.2353C-55.28 62.2353 -54.5294 62.9859 -54.5294 63.9118Z" fill="white" fill-opacity="0.31"/>
<path d="M-44.4705 63.9118C-44.4705 64.8377 -45.2211 65.5882 -46.147 65.5882C-47.0729 65.5882 -47.8235 64.8377 -47.8235 63.9118C-47.8235 62.9859 -47.0729 62.2353 -46.147 62.2353C-45.2211 62.2353 -44.4705 62.9859 -44.4705 63.9118Z" fill="white" fill-opacity="0.31"/>
<path d="M-34.4117 63.9118C-34.4117 64.8377 -35.1623 65.5882 -36.0882 65.5882C-37.0141 65.5882 -37.7646 64.8377 -37.7646 63.9118C-37.7646 62.9859 -37.0141 62.2353 -36.0882 62.2353C-35.1623 62.2353 -34.4117 62.9859 -34.4117 63.9118Z" fill="white" fill-opacity="0.31"/>
<path d="M-24.3529 63.9118C-24.3529 64.8377 -25.1034 65.5882 -26.0293 65.5882C-26.9552 65.5882 -27.7058 64.8377 -27.7058 63.9118C-27.7058 62.9859 -26.9552 62.2353 -26.0293 62.2353C-25.1034 62.2353 -24.3529 62.9859 -24.3529 63.9118Z" fill="white" fill-opacity="0.31"/>
<path d="M-14.294 63.9118C-14.294 64.8377 -15.0446 65.5882 -15.9705 65.5882C-16.8964 65.5882 -17.647 64.8377 -17.647 63.9118C-17.647 62.9859 -16.8964 62.2353 -15.9705 62.2353C-15.0446 62.2353 -14.294 62.9859 -14.294 63.9118Z" fill="white" fill-opacity="0.31"/>
<path d="M-4.23518 63.9118C-4.23518 64.8377 -4.98577 65.5882 -5.91166 65.5882C-6.83755 65.5882 -7.58813 64.8377 -7.58813 63.9118C-7.58813 62.9859 -6.83755 62.2353 -5.91166 62.2353C-4.98577 62.2353 -4.23518 62.9859 -4.23518 63.9118Z" fill="white" fill-opacity="0.31"/>
<path d="M5.82366 63.9118C5.82366 64.8377 5.07307 65.5882 4.14718 65.5882C3.22129 65.5882 2.47071 64.8377 2.47071 63.9118C2.47071 62.9859 3.22129 62.2353 4.14718 62.2353C5.07307 62.2353 5.82366 62.9859 5.82366 63.9118Z" fill="white" fill-opacity="0.31"/>
<path d="M15.8825 63.9118C15.8825 64.8377 15.1319 65.5882 14.206 65.5882C13.2801 65.5882 12.5295 64.8377 12.5295 63.9118C12.5295 62.9859 13.2801 62.2353 14.206 62.2353C15.1319 62.2353 15.8825 62.9859 15.8825 63.9118Z" fill="white" fill-opacity="0.31"/>
<path d="M25.9413 63.9118C25.9413 64.8377 25.1907 65.5882 24.2649 65.5882C23.339 65.5882 22.5884 64.8377 22.5884 63.9118C22.5884 62.9859 23.339 62.2353 24.2649 62.2353C25.1907 62.2353 25.9413 62.9859 25.9413 63.9118Z" fill="white" fill-opacity="0.31"/>
<path d="M-74.6471 73.9706C-74.6471 74.8965 -75.3976 75.6471 -76.3235 75.6471C-77.2494 75.6471 -78 74.8965 -78 73.9706C-78 73.0447 -77.2494 72.2941 -76.3235 72.2941C-75.3976 72.2941 -74.6471 73.0447 -74.6471 73.9706Z" fill="white" fill-opacity="0.31"/>
<path d="M-64.5882 73.9706C-64.5882 74.8965 -65.3388 75.6471 -66.2647 75.6471C-67.1906 75.6471 -67.9412 74.8965 -67.9412 73.9706C-67.9412 73.0447 -67.1906 72.2941 -66.2647 72.2941C-65.3388 72.2941 -64.5882 73.0447 -64.5882 73.9706Z" fill="white" fill-opacity="0.31"/>
<path d="M-54.5294 73.9706C-54.5294 74.8965 -55.28 75.6471 -56.2058 75.6471C-57.1317 75.6471 -57.8823 74.8965 -57.8823 73.9706C-57.8823 73.0447 -57.1317 72.2941 -56.2058 72.2941C-55.28 72.2941 -54.5294 73.0447 -54.5294 73.9706Z" fill="white" fill-opacity="0.31"/>
<path d="M-44.4705 73.9706C-44.4705 74.8965 -45.2211 75.6471 -46.147 75.6471C-47.0729 75.6471 -47.8235 74.8965 -47.8235 73.9706C-47.8235 73.0447 -47.0729 72.2941 -46.147 72.2941C-45.2211 72.2941 -44.4705 73.0447 -44.4705 73.9706Z" fill="white" fill-opacity="0.31"/>
<path d="M-34.4117 73.9706C-34.4117 74.8965 -35.1623 75.6471 -36.0882 75.6471C-37.0141 75.6471 -37.7646 74.8965 -37.7646 73.9706C-37.7646 73.0447 -37.0141 72.2941 -36.0882 72.2941C-35.1623 72.2941 -34.4117 73.0447 -34.4117 73.9706Z" fill="white" fill-opacity="0.31"/>
<path d="M-24.3529 73.9706C-24.3529 74.8965 -25.1034 75.6471 -26.0293 75.6471C-26.9552 75.6471 -27.7058 74.8965 -27.7058 73.9706C-27.7058 73.0447 -26.9552 72.2941 -26.0293 72.2941C-25.1034 72.2941 -24.3529 73.0447 -24.3529 73.9706Z" fill="white" fill-opacity="0.31"/>
<path d="M-14.294 73.9706C-14.294 74.8965 -15.0446 75.6471 -15.9705 75.6471C-16.8964 75.6471 -17.647 74.8965 -17.647 73.9706C-17.647 73.0447 -16.8964 72.2941 -15.9705 72.2941C-15.0446 72.2941 -14.294 73.0447 -14.294 73.9706Z" fill="white" fill-opacity="0.31"/>
<path d="M-4.23518 73.9706C-4.23518 74.8965 -4.98577 75.6471 -5.91166 75.6471C-6.83755 75.6471 -7.58813 74.8965 -7.58813 73.9706C-7.58813 73.0447 -6.83755 72.2941 -5.91166 72.2941C-4.98577 72.2941 -4.23518 73.0447 -4.23518 73.9706Z" fill="white" fill-opacity="0.31"/>
<path d="M5.82366 73.9706C5.82366 74.8965 5.07307 75.6471 4.14718 75.6471C3.22129 75.6471 2.47071 74.8965 2.47071 73.9706C2.47071 73.0447 3.22129 72.2941 4.14718 72.2941C5.07307 72.2941 5.82366 73.0447 5.82366 73.9706Z" fill="white" fill-opacity="0.31"/>
<path d="M15.8825 73.9706C15.8825 74.8965 15.1319 75.6471 14.206 75.6471C13.2801 75.6471 12.5295 74.8965 12.5295 73.9706C12.5295 73.0447 13.2801 72.2941 14.206 72.2941C15.1319 72.2941 15.8825 73.0447 15.8825 73.9706Z" fill="white" fill-opacity="0.31"/>
<path d="M25.9413 73.9706C25.9413 74.8965 25.1907 75.6471 24.2649 75.6471C23.339 75.6471 22.5884 74.8965 22.5884 73.9706C22.5884 73.0447 23.339 72.2941 24.2649 72.2941C25.1907 72.2941 25.9413 73.0447 25.9413 73.9706Z" fill="white" fill-opacity="0.31"/>
<path d="M-74.6471 84.0294C-74.6471 84.9553 -75.3976 85.7059 -76.3235 85.7059C-77.2494 85.7059 -78 84.9553 -78 84.0294C-78 83.1035 -77.2494 82.3529 -76.3235 82.3529C-75.3976 82.3529 -74.6471 83.1035 -74.6471 84.0294Z" fill="white" fill-opacity="0.31"/>
<path d="M-64.5882 84.0294C-64.5882 84.9553 -65.3388 85.7059 -66.2647 85.7059C-67.1906 85.7059 -67.9412 84.9553 -67.9412 84.0294C-67.9412 83.1035 -67.1906 82.3529 -66.2647 82.3529C-65.3388 82.3529 -64.5882 83.1035 -64.5882 84.0294Z" fill="white" fill-opacity="0.31"/>
<path d="M-54.5294 84.0294C-54.5294 84.9553 -55.28 85.7059 -56.2058 85.7059C-57.1317 85.7059 -57.8823 84.9553 -57.8823 84.0294C-57.8823 83.1035 -57.1317 82.3529 -56.2058 82.3529C-55.28 82.3529 -54.5294 83.1035 -54.5294 84.0294Z" fill="white" fill-opacity="0.31"/>
<path d="M-44.4705 84.0294C-44.4705 84.9553 -45.2211 85.7059 -46.147 85.7059C-47.0729 85.7059 -47.8235 84.9553 -47.8235 84.0294C-47.8235 83.1035 -47.0729 82.3529 -46.147 82.3529C-45.2211 82.3529 -44.4705 83.1035 -44.4705 84.0294Z" fill="white" fill-opacity="0.31"/>
<path d="M-34.4117 84.0294C-34.4117 84.9553 -35.1623 85.7059 -36.0882 85.7059C-37.0141 85.7059 -37.7646 84.9553 -37.7646 84.0294C-37.7646 83.1035 -37.0141 82.3529 -36.0882 82.3529C-35.1623 82.3529 -34.4117 83.1035 -34.4117 84.0294Z" fill="white" fill-opacity="0.31"/>
<path d="M-24.3529 84.0294C-24.3529 84.9553 -25.1034 85.7059 -26.0293 85.7059C-26.9552 85.7059 -27.7058 84.9553 -27.7058 84.0294C-27.7058 83.1035 -26.9552 82.3529 -26.0293 82.3529C-25.1034 82.3529 -24.3529 83.1035 -24.3529 84.0294Z" fill="white" fill-opacity="0.31"/>
<path d="M-14.294 84.0294C-14.294 84.9553 -15.0446 85.7059 -15.9705 85.7059C-16.8964 85.7059 -17.647 84.9553 -17.647 84.0294C-17.647 83.1035 -16.8964 82.3529 -15.9705 82.3529C-15.0446 82.3529 -14.294 83.1035 -14.294 84.0294Z" fill="white" fill-opacity="0.31"/>
<path d="M-4.23518 84.0294C-4.23518 84.9553 -4.98577 85.7059 -5.91166 85.7059C-6.83755 85.7059 -7.58813 84.9553 -7.58813 84.0294C-7.58813 83.1035 -6.83755 82.3529 -5.91166 82.3529C-4.98577 82.3529 -4.23518 83.1035 -4.23518 84.0294Z" fill="white" fill-opacity="0.31"/>
<path d="M5.82366 84.0294C5.82366 84.9553 5.07307 85.7059 4.14718 85.7059C3.22129 85.7059 2.47071 84.9553 2.47071 84.0294C2.47071 83.1035 3.22129 82.3529 4.14718 82.3529C5.07307 82.3529 5.82366 83.1035 5.82366 84.0294Z" fill="white" fill-opacity="0.31"/>
<path d="M15.8825 84.0294C15.8825 84.9553 15.1319 85.7059 14.206 85.7059C13.2801 85.7059 12.5295 84.9553 12.5295 84.0294C12.5295 83.1035 13.2801 82.3529 14.206 82.3529C15.1319 82.3529 15.8825 83.1035 15.8825 84.0294Z" fill="white" fill-opacity="0.31"/>
<path d="M25.9413 84.0294C25.9413 84.9553 25.1907 85.7059 24.2649 85.7059C23.339 85.7059 22.5884 84.9553 22.5884 84.0294C22.5884 83.1035 23.339 82.3529 24.2649 82.3529C25.1907 82.3529 25.9413 83.1035 25.9413 84.0294Z" fill="white" fill-opacity="0.31"/>
<path d="M-74.6471 94.0882C-74.6471 95.0141 -75.3976 95.7647 -76.3235 95.7647C-77.2494 95.7647 -78 95.0141 -78 94.0882C-78 93.1623 -77.2494 92.4118 -76.3235 92.4118C-75.3976 92.4118 -74.6471 93.1623 -74.6471 94.0882Z" fill="white" fill-opacity="0.31"/>
<path d="M-64.5882 94.0882C-64.5882 95.0141 -65.3388 95.7647 -66.2647 95.7647C-67.1906 95.7647 -67.9412 95.0141 -67.9412 94.0882C-67.9412 93.1623 -67.1906 92.4118 -66.2647 92.4118C-65.3388 92.4118 -64.5882 93.1623 -64.5882 94.0882Z" fill="white" fill-opacity="0.31"/>
<path d="M-54.5294 94.0882C-54.5294 95.0141 -55.28 95.7647 -56.2058 95.7647C-57.1317 95.7647 -57.8823 95.0141 -57.8823 94.0882C-57.8823 93.1623 -57.1317 92.4118 -56.2058 92.4118C-55.28 92.4118 -54.5294 93.1623 -54.5294 94.0882Z" fill="white" fill-opacity="0.31"/>
<path d="M-44.4705 94.0882C-44.4705 95.0141 -45.2211 95.7647 -46.147 95.7647C-47.0729 95.7647 -47.8235 95.0141 -47.8235 94.0882C-47.8235 93.1623 -47.0729 92.4118 -46.147 92.4118C-45.2211 92.4118 -44.4705 93.1623 -44.4705 94.0882Z" fill="white" fill-opacity="0.31"/>
<path d="M-34.4117 94.0882C-34.4117 95.0141 -35.1623 95.7647 -36.0882 95.7647C-37.0141 95.7647 -37.7646 95.0141 -37.7646 94.0882C-37.7646 93.1623 -37.0141 92.4118 -36.0882 92.4118C-35.1623 92.4118 -34.4117 93.1623 -34.4117 94.0882Z" fill="white" fill-opacity="0.31"/>
<path d="M-24.3529 94.0882C-24.3529 95.0141 -25.1034 95.7647 -26.0293 95.7647C-26.9552 95.7647 -27.7058 95.0141 -27.7058 94.0882C-27.7058 93.1623 -26.9552 92.4118 -26.0293 92.4118C-25.1034 92.4118 -24.3529 93.1623 -24.3529 94.0882Z" fill="white" fill-opacity="0.31"/>
<path d="M-14.294 94.0882C-14.294 95.0141 -15.0446 95.7647 -15.9705 95.7647C-16.8964 95.7647 -17.647 95.0141 -17.647 94.0882C-17.647 93.1623 -16.8964 92.4118 -15.9705 92.4118C-15.0446 92.4118 -14.294 93.1623 -14.294 94.0882Z" fill="white" fill-opacity="0.31"/>
<path d="M-4.23518 94.0882C-4.23518 95.0141 -4.98577 95.7647 -5.91166 95.7647C-6.83755 95.7647 -7.58813 95.0141 -7.58813 94.0882C-7.58813 93.1623 -6.83755 92.4118 -5.91166 92.4118C-4.98577 92.4118 -4.23518 93.1623 -4.23518 94.0882Z" fill="white" fill-opacity="0.31"/>
<path d="M5.82366 94.0882C5.82366 95.0141 5.07307 95.7647 4.14718 95.7647C3.22129 95.7647 2.47071 95.0141 2.47071 94.0882C2.47071 93.1623 3.22129 92.4118 4.14718 92.4118C5.07307 92.4118 5.82366 93.1623 5.82366 94.0882Z" fill="white" fill-opacity="0.31"/>
<path d="M15.8825 94.0882C15.8825 95.0141 15.1319 95.7647 14.206 95.7647C13.2801 95.7647 12.5295 95.0141 12.5295 94.0882C12.5295 93.1623 13.2801 92.4118 14.206 92.4118C15.1319 92.4118 15.8825 93.1623 15.8825 94.0882Z" fill="white" fill-opacity="0.31"/>
<path d="M25.9413 94.0882C25.9413 95.0141 25.1907 95.7647 24.2649 95.7647C23.339 95.7647 22.5884 95.0141 22.5884 94.0882C22.5884 93.1623 23.339 92.4118 24.2649 92.4118C25.1907 92.4118 25.9413 93.1623 25.9413 94.0882Z" fill="white" fill-opacity="0.31"/>
<path d="M-74.6471 104.147C-74.6471 105.073 -75.3976 105.824 -76.3235 105.824C-77.2494 105.824 -78 105.073 -78 104.147C-78 103.221 -77.2494 102.471 -76.3235 102.471C-75.3976 102.471 -74.6471 103.221 -74.6471 104.147Z" fill="white" fill-opacity="0.31"/>
<path d="M-64.5882 104.147C-64.5882 105.073 -65.3388 105.824 -66.2647 105.824C-67.1906 105.824 -67.9412 105.073 -67.9412 104.147C-67.9412 103.221 -67.1906 102.471 -66.2647 102.471C-65.3388 102.471 -64.5882 103.221 -64.5882 104.147Z" fill="white" fill-opacity="0.31"/>
<path d="M-54.5294 104.147C-54.5294 105.073 -55.28 105.824 -56.2058 105.824C-57.1317 105.824 -57.8823 105.073 -57.8823 104.147C-57.8823 103.221 -57.1317 102.471 -56.2058 102.471C-55.28 102.471 -54.5294 103.221 -54.5294 104.147Z" fill="white" fill-opacity="0.31"/>
<path d="M-44.4705 104.147C-44.4705 105.073 -45.2211 105.824 -46.147 105.824C-47.0729 105.824 -47.8235 105.073 -47.8235 104.147C-47.8235 103.221 -47.0729 102.471 -46.147 102.471C-45.2211 102.471 -44.4705 103.221 -44.4705 104.147Z" fill="white" fill-opacity="0.31"/>
<path d="M-34.4117 104.147C-34.4117 105.073 -35.1623 105.824 -36.0882 105.824C-37.0141 105.824 -37.7646 105.073 -37.7646 104.147C-37.7646 103.221 -37.0141 102.471 -36.0882 102.471C-35.1623 102.471 -34.4117 103.221 -34.4117 104.147Z" fill="white" fill-opacity="0.31"/>
<path d="M-24.3529 104.147C-24.3529 105.073 -25.1034 105.824 -26.0293 105.824C-26.9552 105.824 -27.7058 105.073 -27.7058 104.147C-27.7058 103.221 -26.9552 102.471 -26.0293 102.471C-25.1034 102.471 -24.3529 103.221 -24.3529 104.147Z" fill="white" fill-opacity="0.31"/>
<path d="M-14.294 104.147C-14.294 105.073 -15.0446 105.824 -15.9705 105.824C-16.8964 105.824 -17.647 105.073 -17.647 104.147C-17.647 103.221 -16.8964 102.471 -15.9705 102.471C-15.0446 102.471 -14.294 103.221 -14.294 104.147Z" fill="white" fill-opacity="0.31"/>
<path d="M-4.23518 104.147C-4.23518 105.073 -4.98577 105.824 -5.91166 105.824C-6.83755 105.824 -7.58813 105.073 -7.58813 104.147C-7.58813 103.221 -6.83755 102.471 -5.91166 102.471C-4.98577 102.471 -4.23518 103.221 -4.23518 104.147Z" fill="white" fill-opacity="0.31"/>
<path d="M5.82366 104.147C5.82366 105.073 5.07307 105.824 4.14718 105.824C3.22129 105.824 2.47071 105.073 2.47071 104.147C2.47071 103.221 3.22129 102.471 4.14718 102.471C5.07307 102.471 5.82366 103.221 5.82366 104.147Z" fill="white" fill-opacity="0.31"/>
<path d="M15.8825 104.147C15.8825 105.073 15.1319 105.824 14.206 105.824C13.2801 105.824 12.5295 105.073 12.5295 104.147C12.5295 103.221 13.2801 102.471 14.206 102.471C15.1319 102.471 15.8825 103.221 15.8825 104.147Z" fill="white" fill-opacity="0.31"/>
<path d="M25.9413 104.147C25.9413 105.073 25.1907 105.824 24.2649 105.824C23.339 105.824 22.5884 105.073 22.5884 104.147C22.5884 103.221 23.339 102.471 24.2649 102.471C25.1907 102.471 25.9413 103.221 25.9413 104.147Z" fill="white" fill-opacity="0.31"/>
<path d="M-74.6471 114.206C-74.6471 115.132 -75.3976 115.882 -76.3235 115.882C-77.2494 115.882 -78 115.132 -78 114.206C-78 113.28 -77.2494 112.529 -76.3235 112.529C-75.3976 112.529 -74.6471 113.28 -74.6471 114.206Z" fill="white" fill-opacity="0.31"/>
<path d="M-64.5882 114.206C-64.5882 115.132 -65.3388 115.882 -66.2647 115.882C-67.1906 115.882 -67.9412 115.132 -67.9412 114.206C-67.9412 113.28 -67.1906 112.529 -66.2647 112.529C-65.3388 112.529 -64.5882 113.28 -64.5882 114.206Z" fill="white" fill-opacity="0.31"/>
<path d="M-54.5294 114.206C-54.5294 115.132 -55.28 115.882 -56.2058 115.882C-57.1317 115.882 -57.8823 115.132 -57.8823 114.206C-57.8823 113.28 -57.1317 112.529 -56.2058 112.529C-55.28 112.529 -54.5294 113.28 -54.5294 114.206Z" fill="white" fill-opacity="0.31"/>
<path d="M-44.4705 114.206C-44.4705 115.132 -45.2211 115.882 -46.147 115.882C-47.0729 115.882 -47.8235 115.132 -47.8235 114.206C-47.8235 113.28 -47.0729 112.529 -46.147 112.529C-45.2211 112.529 -44.4705 113.28 -44.4705 114.206Z" fill="white" fill-opacity="0.31"/>
<path d="M-34.4117 114.206C-34.4117 115.132 -35.1623 115.882 -36.0882 115.882C-37.0141 115.882 -37.7646 115.132 -37.7646 114.206C-37.7646 113.28 -37.0141 112.529 -36.0882 112.529C-35.1623 112.529 -34.4117 113.28 -34.4117 114.206Z" fill="white" fill-opacity="0.31"/>
<path d="M-24.3529 114.206C-24.3529 115.132 -25.1034 115.882 -26.0293 115.882C-26.9552 115.882 -27.7058 115.132 -27.7058 114.206C-27.7058 113.28 -26.9552 112.529 -26.0293 112.529C-25.1034 112.529 -24.3529 113.28 -24.3529 114.206Z" fill="white" fill-opacity="0.31"/>
<path d="M-14.294 114.206C-14.294 115.132 -15.0446 115.882 -15.9705 115.882C-16.8964 115.882 -17.647 115.132 -17.647 114.206C-17.647 113.28 -16.8964 112.529 -15.9705 112.529C-15.0446 112.529 -14.294 113.28 -14.294 114.206Z" fill="white" fill-opacity="0.31"/>
<path d="M-4.23518 114.206C-4.23518 115.132 -4.98577 115.882 -5.91166 115.882C-6.83755 115.882 -7.58813 115.132 -7.58813 114.206C-7.58813 113.28 -6.83755 112.529 -5.91166 112.529C-4.98577 112.529 -4.23518 113.28 -4.23518 114.206Z" fill="white" fill-opacity="0.31"/>
<path d="M5.82366 114.206C5.82366 115.132 5.07307 115.882 4.14718 115.882C3.22129 115.882 2.47071 115.132 2.47071 114.206C2.47071 113.28 3.22129 112.529 4.14718 112.529C5.07307 112.529 5.82366 113.28 5.82366 114.206Z" fill="white" fill-opacity="0.31"/>
<path d="M15.8825 114.206C15.8825 115.132 15.1319 115.882 14.206 115.882C13.2801 115.882 12.5295 115.132 12.5295 114.206C12.5295 113.28 13.2801 112.529 14.206 112.529C15.1319 112.529 15.8825 113.28 15.8825 114.206Z" fill="white" fill-opacity="0.31"/>
<path d="M25.9413 114.206C25.9413 115.132 25.1907 115.882 24.2649 115.882C23.339 115.882 22.5884 115.132 22.5884 114.206C22.5884 113.28 23.339 112.529 24.2649 112.529C25.1907 112.529 25.9413 113.28 25.9413 114.206Z" fill="white" fill-opacity="0.31"/>
<path d="M-74.6471 124.265C-74.6471 125.191 -75.3976 125.941 -76.3235 125.941C-77.2494 125.941 -78 125.191 -78 124.265C-78 123.339 -77.2494 122.588 -76.3235 122.588C-75.3976 122.588 -74.6471 123.339 -74.6471 124.265Z" fill="white" fill-opacity="0.31"/>
<path d="M-64.5882 124.265C-64.5882 125.191 -65.3388 125.941 -66.2647 125.941C-67.1906 125.941 -67.9412 125.191 -67.9412 124.265C-67.9412 123.339 -67.1906 122.588 -66.2647 122.588C-65.3388 122.588 -64.5882 123.339 -64.5882 124.265Z" fill="white" fill-opacity="0.31"/>
<path d="M-54.5294 124.265C-54.5294 125.191 -55.28 125.941 -56.2058 125.941C-57.1317 125.941 -57.8823 125.191 -57.8823 124.265C-57.8823 123.339 -57.1317 122.588 -56.2058 122.588C-55.28 122.588 -54.5294 123.339 -54.5294 124.265Z" fill="white" fill-opacity="0.31"/>
<path d="M-44.4705 124.265C-44.4705 125.191 -45.2211 125.941 -46.147 125.941C-47.0729 125.941 -47.8235 125.191 -47.8235 124.265C-47.8235 123.339 -47.0729 122.588 -46.147 122.588C-45.2211 122.588 -44.4705 123.339 -44.4705 124.265Z" fill="white" fill-opacity="0.31"/>
<path d="M-34.4117 124.265C-34.4117 125.191 -35.1623 125.941 -36.0882 125.941C-37.0141 125.941 -37.7646 125.191 -37.7646 124.265C-37.7646 123.339 -37.0141 122.588 -36.0882 122.588C-35.1623 122.588 -34.4117 123.339 -34.4117 124.265Z" fill="white" fill-opacity="0.31"/>
<path d="M-24.3529 124.265C-24.3529 125.191 -25.1034 125.941 -26.0293 125.941C-26.9552 125.941 -27.7058 125.191 -27.7058 124.265C-27.7058 123.339 -26.9552 122.588 -26.0293 122.588C-25.1034 122.588 -24.3529 123.339 -24.3529 124.265Z" fill="white" fill-opacity="0.31"/>
<path d="M-14.294 124.265C-14.294 125.191 -15.0446 125.941 -15.9705 125.941C-16.8964 125.941 -17.647 125.191 -17.647 124.265C-17.647 123.339 -16.8964 122.588 -15.9705 122.588C-15.0446 122.588 -14.294 123.339 -14.294 124.265Z" fill="white" fill-opacity="0.31"/>
<path d="M-4.23518 124.265C-4.23518 125.191 -4.98577 125.941 -5.91166 125.941C-6.83755 125.941 -7.58813 125.191 -7.58813 124.265C-7.58813 123.339 -6.83755 122.588 -5.91166 122.588C-4.98577 122.588 -4.23518 123.339 -4.23518 124.265Z" fill="white" fill-opacity="0.31"/>
<path d="M5.82366 124.265C5.82366 125.191 5.07307 125.941 4.14718 125.941C3.22129 125.941 2.47071 125.191 2.47071 124.265C2.47071 123.339 3.22129 122.588 4.14718 122.588C5.07307 122.588 5.82366 123.339 5.82366 124.265Z" fill="white" fill-opacity="0.31"/>
<path d="M15.8825 124.265C15.8825 125.191 15.1319 125.941 14.206 125.941C13.2801 125.941 12.5295 125.191 12.5295 124.265C12.5295 123.339 13.2801 122.588 14.206 122.588C15.1319 122.588 15.8825 123.339 15.8825 124.265Z" fill="white" fill-opacity="0.31"/>
<path d="M25.9413 124.265C25.9413 125.191 25.1907 125.941 24.2649 125.941C23.339 125.941 22.5884 125.191 22.5884 124.265C22.5884 123.339 23.339 122.588 24.2649 122.588C25.1907 122.588 25.9413 123.339 25.9413 124.265Z" fill="white" fill-opacity="0.31"/>
<path d="M-74.6471 134.324C-74.6471 135.249 -75.3976 136 -76.3235 136C-77.2494 136 -78 135.249 -78 134.324C-78 133.398 -77.2494 132.647 -76.3235 132.647C-75.3976 132.647 -74.6471 133.398 -74.6471 134.324Z" fill="white" fill-opacity="0.31"/>
<path d="M-64.5882 134.324C-64.5882 135.249 -65.3388 136 -66.2647 136C-67.1906 136 -67.9412 135.249 -67.9412 134.324C-67.9412 133.398 -67.1906 132.647 -66.2647 132.647C-65.3388 132.647 -64.5882 133.398 -64.5882 134.324Z" fill="white" fill-opacity="0.31"/>
<path d="M-54.5294 134.324C-54.5294 135.249 -55.28 136 -56.2058 136C-57.1317 136 -57.8823 135.249 -57.8823 134.324C-57.8823 133.398 -57.1317 132.647 -56.2058 132.647C-55.28 132.647 -54.5294 133.398 -54.5294 134.324Z" fill="white" fill-opacity="0.31"/>
<path d="M-44.4705 134.324C-44.4705 135.249 -45.2211 136 -46.147 136C-47.0729 136 -47.8235 135.249 -47.8235 134.324C-47.8235 133.398 -47.0729 132.647 -46.147 132.647C-45.2211 132.647 -44.4705 133.398 -44.4705 134.324Z" fill="white" fill-opacity="0.31"/>
<path d="M-34.4117 134.324C-34.4117 135.249 -35.1623 136 -36.0882 136C-37.0141 136 -37.7646 135.249 -37.7646 134.324C-37.7646 133.398 -37.0141 132.647 -36.0882 132.647C-35.1623 132.647 -34.4117 133.398 -34.4117 134.324Z" fill="white" fill-opacity="0.31"/>
<path d="M-24.3529 134.324C-24.3529 135.249 -25.1034 136 -26.0293 136C-26.9552 136 -27.7058 135.249 -27.7058 134.324C-27.7058 133.398 -26.9552 132.647 -26.0293 132.647C-25.1034 132.647 -24.3529 133.398 -24.3529 134.324Z" fill="white" fill-opacity="0.31"/>
<path d="M-14.294 134.324C-14.294 135.249 -15.0446 136 -15.9705 136C-16.8964 136 -17.647 135.249 -17.647 134.324C-17.647 133.398 -16.8964 132.647 -15.9705 132.647C-15.0446 132.647 -14.294 133.398 -14.294 134.324Z" fill="white" fill-opacity="0.31"/>
<path d="M-4.23518 134.324C-4.23518 135.249 -4.98577 136 -5.91166 136C-6.83755 136 -7.58813 135.249 -7.58813 134.324C-7.58813 133.398 -6.83755 132.647 -5.91166 132.647C-4.98577 132.647 -4.23518 133.398 -4.23518 134.324Z" fill="white" fill-opacity="0.31"/>
<path d="M5.82366 134.324C5.82366 135.249 5.07307 136 4.14718 136C3.22129 136 2.47071 135.249 2.47071 134.324C2.47071 133.398 3.22129 132.647 4.14718 132.647C5.07307 132.647 5.82366 133.398 5.82366 134.324Z" fill="white" fill-opacity="0.31"/>
<path d="M15.8825 134.324C15.8825 135.249 15.1319 136 14.206 136C13.2801 136 12.5295 135.249 12.5295 134.324C12.5295 133.398 13.2801 132.647 14.206 132.647C15.1319 132.647 15.8825 133.398 15.8825 134.324Z" fill="white" fill-opacity="0.31"/>
<path d="M25.9413 134.324C25.9413 135.249 25.1907 136 24.2649 136C23.339 136 22.5884 135.249 22.5884 134.324C22.5884 133.398 23.339 132.647 24.2649 132.647C25.1907 132.647 25.9413 133.398 25.9413 134.324Z" fill="white" fill-opacity="0.31"/>
</g>
<defs>
<linearGradient id="paint0_linear_521_14" x1="511.267" y1="333.507" x2="476.213" y2="244.187" gradientUnits="userSpaceOnUse">
<stop stop-color="white"/>
<stop offset="1" stop-color="white" stop-opacity="0"/>
</linearGradient>
<linearGradient id="paint1_linear_521_14" x1="511.267" y1="333.507" x2="476.213" y2="244.187" gradientUnits="userSpaceOnUse">
<stop stop-color="white"/>
<stop offset="1" stop-color="white" stop-opacity="0"/>
</linearGradient>
<linearGradient id="paint2_linear_521_14" x1="511.267" y1="333.507" x2="476.213" y2="244.187" gradientUnits="userSpaceOnUse">
<stop stop-color="white"/>
<stop offset="1" stop-color="white" stop-opacity="0"/>
</linearGradient>
<linearGradient id="paint3_linear_521_14" x1="511.267" y1="333.507" x2="476.213" y2="244.187" gradientUnits="userSpaceOnUse">
<stop stop-color="white"/>
<stop offset="1" stop-color="white" stop-opacity="0"/>
</linearGradient>
<linearGradient id="paint4_linear_521_14" x1="511.267" y1="333.507" x2="476.213" y2="244.187" gradientUnits="userSpaceOnUse">
<stop stop-color="white"/>
<stop offset="1" stop-color="white" stop-opacity="0"/>
</linearGradient>
<linearGradient id="paint5_linear_521_14" x1="511.267" y1="333.507" x2="476.213" y2="244.187" gradientUnits="userSpaceOnUse">
<stop stop-color="white"/>
<stop offset="1" stop-color="white" stop-opacity="0"/>
</linearGradient>
<linearGradient id="paint6_linear_521_14" x1="511.267" y1="333.507" x2="476.213" y2="244.187" gradientUnits="userSpaceOnUse">
<stop stop-color="white"/>
<stop offset="1" stop-color="white" stop-opacity="0"/>
</linearGradient>
<linearGradient id="paint7_linear_521_14" x1="511.267" y1="333.507" x2="476.213" y2="244.187" gradientUnits="userSpaceOnUse">
<stop stop-color="white"/>
<stop offset="1" stop-color="white" stop-opacity="0"/>
</linearGradient>
<linearGradient id="paint8_linear_521_14" x1="511.267" y1="333.507" x2="476.213" y2="244.187" gradientUnits="userSpaceOnUse">
<stop stop-color="white"/>
<stop offset="1" stop-color="white" stop-opacity="0"/>
</linearGradient>
<linearGradient id="paint9_linear_521_14" x1="511.267" y1="333.507" x2="476.213" y2="244.187" gradientUnits="userSpaceOnUse">
<stop stop-color="white"/>
<stop offset="1" stop-color="white" stop-opacity="0"/>
</linearGradient>
<linearGradient id="paint10_linear_521_14" x1="511.267" y1="333.507" x2="476.213" y2="244.187" gradientUnits="userSpaceOnUse">
<stop stop-color="white"/>
<stop offset="1" stop-color="white" stop-opacity="0"/>
</linearGradient>
<linearGradient id="paint11_linear_521_14" x1="511.267" y1="333.507" x2="476.213" y2="244.187" gradientUnits="userSpaceOnUse">
<stop stop-color="white"/>
<stop offset="1" stop-color="white" stop-opacity="0"/>
</linearGradient>
<linearGradient id="paint12_linear_521_14" x1="511.267" y1="333.507" x2="476.213" y2="244.187" gradientUnits="userSpaceOnUse">
<stop stop-color="white"/>
<stop offset="1" stop-color="white" stop-opacity="0"/>
</linearGradient>
<linearGradient id="paint13_linear_521_14" x1="511.267" y1="333.507" x2="476.213" y2="244.187" gradientUnits="userSpaceOnUse">
<stop stop-color="white"/>
<stop offset="1" stop-color="white" stop-opacity="0"/>
</linearGradient>
<linearGradient id="paint14_linear_521_14" x1="511.267" y1="333.507" x2="476.213" y2="244.187" gradientUnits="userSpaceOnUse">
<stop stop-color="white"/>
<stop offset="1" stop-color="white" stop-opacity="0"/>
</linearGradient>
<linearGradient id="paint15_linear_521_14" x1="511.267" y1="333.507" x2="476.213" y2="244.187" gradientUnits="userSpaceOnUse">
<stop stop-color="white"/>
<stop offset="1" stop-color="white" stop-opacity="0"/>
</linearGradient>
<linearGradient id="paint16_linear_521_14" x1="511.267" y1="333.507" x2="476.213" y2="244.187" gradientUnits="userSpaceOnUse">
<stop stop-color="white"/>
<stop offset="1" stop-color="white" stop-opacity="0"/>
</linearGradient>
<linearGradient id="paint17_linear_521_14" x1="511.267" y1="333.507" x2="476.213" y2="244.187" gradientUnits="userSpaceOnUse">
<stop stop-color="white"/>
<stop offset="1" stop-color="white" stop-opacity="0"/>
</linearGradient>
<linearGradient id="paint18_linear_521_14" x1="511.267" y1="333.507" x2="476.213" y2="244.187" gradientUnits="userSpaceOnUse">
<stop stop-color="white"/>
<stop offset="1" stop-color="white" stop-opacity="0"/>
</linearGradient>
<linearGradient id="paint19_linear_521_14" x1="511.267" y1="333.507" x2="476.213" y2="244.187" gradientUnits="userSpaceOnUse">
<stop stop-color="white"/>
<stop offset="1" stop-color="white" stop-opacity="0"/>
</linearGradient>
<linearGradient id="paint20_linear_521_14" x1="511.267" y1="333.507" x2="476.213" y2="244.187" gradientUnits="userSpaceOnUse">
<stop stop-color="white"/>
<stop offset="1" stop-color="white" stop-opacity="0"/>
</linearGradient>
<linearGradient id="paint21_linear_521_14" x1="511.267" y1="333.507" x2="476.213" y2="244.187" gradientUnits="userSpaceOnUse">
<stop stop-color="white"/>
<stop offset="1" stop-color="white" stop-opacity="0"/>
</linearGradient>
<linearGradient id="paint22_linear_521_14" x1="511.267" y1="333.507" x2="476.213" y2="244.187" gradientUnits="userSpaceOnUse">
<stop stop-color="white"/>
<stop offset="1" stop-color="white" stop-opacity="0"/>
</linearGradient>
<linearGradient id="paint23_linear_521_14" x1="511.267" y1="333.507" x2="476.213" y2="244.187" gradientUnits="userSpaceOnUse">
<stop stop-color="white"/>
<stop offset="1" stop-color="white" stop-opacity="0"/>
</linearGradient>
<linearGradient id="paint24_linear_521_14" x1="511.267" y1="333.507" x2="476.213" y2="244.187" gradientUnits="userSpaceOnUse">
<stop stop-color="white"/>
<stop offset="1" stop-color="white" stop-opacity="0"/>
</linearGradient>
<linearGradient id="paint25_linear_521_14" x1="511.267" y1="333.507" x2="476.213" y2="244.187" gradientUnits="userSpaceOnUse">
<stop stop-color="white"/>
<stop offset="1" stop-color="white" stop-opacity="0"/>
</linearGradient>
<linearGradient id="paint26_linear_521_14" x1="511.267" y1="333.507" x2="476.213" y2="244.187" gradientUnits="userSpaceOnUse">
<stop stop-color="white"/>
<stop offset="1" stop-color="white" stop-opacity="0"/>
</linearGradient>
<linearGradient id="paint27_linear_521_14" x1="511.267" y1="333.507" x2="476.213" y2="244.187" gradientUnits="userSpaceOnUse">
<stop stop-color="white"/>
<stop offset="1" stop-color="white" stop-opacity="0"/>
</linearGradient>
<linearGradient id="paint28_linear_521_14" x1="511.267" y1="333.507" x2="476.213" y2="244.187" gradientUnits="userSpaceOnUse">
<stop stop-color="white"/>
<stop offset="1" stop-color="white" stop-opacity="0"/>
</linearGradient>
<linearGradient id="paint29_linear_521_14" x1="511.267" y1="333.507" x2="476.213" y2="244.187" gradientUnits="userSpaceOnUse">
<stop stop-color="white"/>
<stop offset="1" stop-color="white" stop-opacity="0"/>
</linearGradient>
<linearGradient id="paint30_linear_521_14" x1="511.267" y1="333.507" x2="476.213" y2="244.187" gradientUnits="userSpaceOnUse">
<stop stop-color="white"/>
<stop offset="1" stop-color="white" stop-opacity="0"/>
</linearGradient>
<linearGradient id="paint31_linear_521_14" x1="511.267" y1="333.507" x2="476.213" y2="244.187" gradientUnits="userSpaceOnUse">
<stop stop-color="white"/>
<stop offset="1" stop-color="white" stop-opacity="0"/>
</linearGradient>
<linearGradient id="paint32_linear_521_14" x1="511.267" y1="333.507" x2="476.213" y2="244.187" gradientUnits="userSpaceOnUse">
<stop stop-color="white"/>
<stop offset="1" stop-color="white" stop-opacity="0"/>
</linearGradient>
<linearGradient id="paint33_linear_521_14" x1="511.267" y1="333.507" x2="476.213" y2="244.187" gradientUnits="userSpaceOnUse">
<stop stop-color="white"/>
<stop offset="1" stop-color="white" stop-opacity="0"/>
</linearGradient>
<linearGradient id="paint34_linear_521_14" x1="511.267" y1="333.507" x2="476.213" y2="244.187" gradientUnits="userSpaceOnUse">
<stop stop-color="white"/>
<stop offset="1" stop-color="white" stop-opacity="0"/>
</linearGradient>
<linearGradient id="paint35_linear_521_14" x1="511.267" y1="333.507" x2="476.213" y2="244.187" gradientUnits="userSpaceOnUse">
<stop stop-color="white"/>
<stop offset="1" stop-color="white" stop-opacity="0"/>
</linearGradient>
<linearGradient id="paint36_linear_521_14" x1="511.267" y1="333.507" x2="476.213" y2="244.187" gradientUnits="userSpaceOnUse">
<stop stop-color="white"/>
<stop offset="1" stop-color="white" stop-opacity="0"/>
</linearGradient>
<linearGradient id="paint37_linear_521_14" x1="511.267" y1="333.507" x2="476.213" y2="244.187" gradientUnits="userSpaceOnUse">
<stop stop-color="white"/>
<stop offset="1" stop-color="white" stop-opacity="0"/>
</linearGradient>
<linearGradient id="paint38_linear_521_14" x1="511.267" y1="333.507" x2="476.213" y2="244.187" gradientUnits="userSpaceOnUse">
<stop stop-color="white"/>
<stop offset="1" stop-color="white" stop-opacity="0"/>
</linearGradient>
<linearGradient id="paint39_linear_521_14" x1="511.267" y1="333.507" x2="476.213" y2="244.187" gradientUnits="userSpaceOnUse">
<stop stop-color="white"/>
<stop offset="1" stop-color="white" stop-opacity="0"/>
</linearGradient>
<linearGradient id="paint40_linear_521_14" x1="511.267" y1="333.507" x2="476.213" y2="244.187" gradientUnits="userSpaceOnUse">
<stop stop-color="white"/>
<stop offset="1" stop-color="white" stop-opacity="0"/>
</linearGradient>
<linearGradient id="paint41_linear_521_14" x1="511.267" y1="333.507" x2="476.213" y2="244.187" gradientUnits="userSpaceOnUse">
<stop stop-color="white"/>
<stop offset="1" stop-color="white" stop-opacity="0"/>
</linearGradient>
<linearGradient id="paint42_linear_521_14" x1="511.267" y1="333.507" x2="476.213" y2="244.187" gradientUnits="userSpaceOnUse">
<stop stop-color="white"/>
<stop offset="1" stop-color="white" stop-opacity="0"/>
</linearGradient>
<linearGradient id="paint43_linear_521_14" x1="511.267" y1="333.507" x2="476.213" y2="244.187" gradientUnits="userSpaceOnUse">
<stop stop-color="white"/>
<stop offset="1" stop-color="white" stop-opacity="0"/>
</linearGradient>
<linearGradient id="paint44_linear_521_14" x1="511.267" y1="333.507" x2="476.213" y2="244.187" gradientUnits="userSpaceOnUse">
<stop stop-color="white"/>
<stop offset="1" stop-color="white" stop-opacity="0"/>
</linearGradient>
<linearGradient id="paint45_linear_521_14" x1="511.267" y1="333.507" x2="476.213" y2="244.187" gradientUnits="userSpaceOnUse">
<stop stop-color="white"/>
<stop offset="1" stop-color="white" stop-opacity="0"/>
</linearGradient>
<linearGradient id="paint46_linear_521_14" x1="511.267" y1="333.507" x2="476.213" y2="244.187" gradientUnits="userSpaceOnUse">
<stop stop-color="white"/>
<stop offset="1" stop-color="white" stop-opacity="0"/>
</linearGradient>
<linearGradient id="paint47_linear_521_14" x1="511.267" y1="333.507" x2="476.213" y2="244.187" gradientUnits="userSpaceOnUse">
<stop stop-color="white"/>
<stop offset="1" stop-color="white" stop-opacity="0"/>
</linearGradient>
<linearGradient id="paint48_linear_521_14" x1="511.267" y1="333.507" x2="476.213" y2="244.187" gradientUnits="userSpaceOnUse">
<stop stop-color="white"/>
<stop offset="1" stop-color="white" stop-opacity="0"/>
</linearGradient>
<linearGradient id="paint49_linear_521_14" x1="511.267" y1="333.507" x2="476.213" y2="244.187" gradientUnits="userSpaceOnUse">
<stop stop-color="white"/>
<stop offset="1" stop-color="white" stop-opacity="0"/>
</linearGradient>
<linearGradient id="paint50_linear_521_14" x1="511.267" y1="333.507" x2="476.213" y2="244.187" gradientUnits="userSpaceOnUse">
<stop stop-color="white"/>
<stop offset="1" stop-color="white" stop-opacity="0"/>
</linearGradient>
<linearGradient id="paint51_linear_521_14" x1="511.267" y1="333.507" x2="476.213" y2="244.187" gradientUnits="userSpaceOnUse">
<stop stop-color="white"/>
<stop offset="1" stop-color="white" stop-opacity="0"/>
</linearGradient>
<linearGradient id="paint52_linear_521_14" x1="511.267" y1="333.507" x2="476.213" y2="244.187" gradientUnits="userSpaceOnUse">
<stop stop-color="white"/>
<stop offset="1" stop-color="white" stop-opacity="0"/>
</linearGradient>
<linearGradient id="paint53_linear_521_14" x1="511.267" y1="333.507" x2="476.213" y2="244.187" gradientUnits="userSpaceOnUse">
<stop stop-color="white"/>
<stop offset="1" stop-color="white" stop-opacity="0"/>
</linearGradient>
<linearGradient id="paint54_linear_521_14" x1="511.267" y1="333.507" x2="476.213" y2="244.187" gradientUnits="userSpaceOnUse">
<stop stop-color="white"/>
<stop offset="1" stop-color="white" stop-opacity="0"/>
</linearGradient>
<linearGradient id="paint55_linear_521_14" x1="511.267" y1="333.507" x2="476.213" y2="244.187" gradientUnits="userSpaceOnUse">
<stop stop-color="white"/>
<stop offset="1" stop-color="white" stop-opacity="0"/>
</linearGradient>
<linearGradient id="paint56_linear_521_14" x1="511.267" y1="333.507" x2="476.213" y2="244.187" gradientUnits="userSpaceOnUse">
<stop stop-color="white"/>
<stop offset="1" stop-color="white" stop-opacity="0"/>
</linearGradient>
<linearGradient id="paint57_linear_521_14" x1="511.267" y1="333.507" x2="476.213" y2="244.187" gradientUnits="userSpaceOnUse">
<stop stop-color="white"/>
<stop offset="1" stop-color="white" stop-opacity="0"/>
</linearGradient>
<linearGradient id="paint58_linear_521_14" x1="511.267" y1="333.507" x2="476.213" y2="244.187" gradientUnits="userSpaceOnUse">
<stop stop-color="white"/>
<stop offset="1" stop-color="white" stop-opacity="0"/>
</linearGradient>
<linearGradient id="paint59_linear_521_14" x1="511.267" y1="333.507" x2="476.213" y2="244.187" gradientUnits="userSpaceOnUse">
<stop stop-color="white"/>
<stop offset="1" stop-color="white" stop-opacity="0"/>
</linearGradient>
<linearGradient id="paint60_linear_521_14" x1="511.267" y1="333.507" x2="476.213" y2="244.187" gradientUnits="userSpaceOnUse">
<stop stop-color="white"/>
<stop offset="1" stop-color="white" stop-opacity="0"/>
</linearGradient>
<linearGradient id="paint61_linear_521_14" x1="511.267" y1="333.507" x2="476.213" y2="244.187" gradientUnits="userSpaceOnUse">
<stop stop-color="white"/>
<stop offset="1" stop-color="white" stop-opacity="0"/>
</linearGradient>
<linearGradient id="paint62_linear_521_14" x1="511.267" y1="333.507" x2="476.213" y2="244.187" gradientUnits="userSpaceOnUse">
<stop stop-color="white"/>
<stop offset="1" stop-color="white" stop-opacity="0"/>
</linearGradient>
<linearGradient id="paint63_linear_521_14" x1="511.267" y1="333.507" x2="476.213" y2="244.187" gradientUnits="userSpaceOnUse">
<stop stop-color="white"/>
<stop offset="1" stop-color="white" stop-opacity="0"/>
</linearGradient>
<linearGradient id="paint64_linear_521_14" x1="511.267" y1="333.507" x2="476.213" y2="244.187" gradientUnits="userSpaceOnUse">
<stop stop-color="white"/>
<stop offset="1" stop-color="white" stop-opacity="0"/>
</linearGradient>
<linearGradient id="paint65_linear_521_14" x1="511.267" y1="333.507" x2="476.213" y2="244.187" gradientUnits="userSpaceOnUse">
<stop stop-color="white"/>
<stop offset="1" stop-color="white" stop-opacity="0"/>
</linearGradient>
<linearGradient id="paint66_linear_521_14" x1="511.267" y1="333.507" x2="476.213" y2="244.187" gradientUnits="userSpaceOnUse">
<stop stop-color="white"/>
<stop offset="1" stop-color="white" stop-opacity="0"/>
</linearGradient>
<linearGradient id="paint67_linear_521_14" x1="511.267" y1="333.507" x2="476.213" y2="244.187" gradientUnits="userSpaceOnUse">
<stop stop-color="white"/>
<stop offset="1" stop-color="white" stop-opacity="0"/>
</linearGradient>
<linearGradient id="paint68_linear_521_14" x1="511.267" y1="333.507" x2="476.213" y2="244.187" gradientUnits="userSpaceOnUse">
<stop stop-color="white"/>
<stop offset="1" stop-color="white" stop-opacity="0"/>
</linearGradient>
<linearGradient id="paint69_linear_521_14" x1="511.267" y1="333.507" x2="476.213" y2="244.187" gradientUnits="userSpaceOnUse">
<stop stop-color="white"/>
<stop offset="1" stop-color="white" stop-opacity="0"/>
</linearGradient>
<linearGradient id="paint70_linear_521_14" x1="511.267" y1="333.507" x2="476.213" y2="244.187" gradientUnits="userSpaceOnUse">
<stop stop-color="white"/>
<stop offset="1" stop-color="white" stop-opacity="0"/>
</linearGradient>
<linearGradient id="paint71_linear_521_14" x1="511.267" y1="333.507" x2="476.213" y2="244.187" gradientUnits="userSpaceOnUse">
<stop stop-color="white"/>
<stop offset="1" stop-color="white" stop-opacity="0"/>
</linearGradient>
<linearGradient id="paint72_linear_521_14" x1="511.267" y1="333.507" x2="476.213" y2="244.187" gradientUnits="userSpaceOnUse">
<stop stop-color="white"/>
<stop offset="1" stop-color="white" stop-opacity="0"/>
</linearGradient>
<linearGradient id="paint73_linear_521_14" x1="511.267" y1="333.507" x2="476.213" y2="244.187" gradientUnits="userSpaceOnUse">
<stop stop-color="white"/>
<stop offset="1" stop-color="white" stop-opacity="0"/>
</linearGradient>
<linearGradient id="paint74_linear_521_14" x1="511.267" y1="333.507" x2="476.213" y2="244.187" gradientUnits="userSpaceOnUse">
<stop stop-color="white"/>
<stop offset="1" stop-color="white" stop-opacity="0"/>
</linearGradient>
<linearGradient id="paint75_linear_521_14" x1="511.267" y1="333.507" x2="476.213" y2="244.187" gradientUnits="userSpaceOnUse">
<stop stop-color="white"/>
<stop offset="1" stop-color="white" stop-opacity="0"/>
</linearGradient>
<linearGradient id="paint76_linear_521_14" x1="511.267" y1="333.507" x2="476.213" y2="244.187" gradientUnits="userSpaceOnUse">
<stop stop-color="white"/>
<stop offset="1" stop-color="white" stop-opacity="0"/>
</linearGradient>
<linearGradient id="paint77_linear_521_14" x1="511.267" y1="333.507" x2="476.213" y2="244.187" gradientUnits="userSpaceOnUse">
<stop stop-color="white"/>
<stop offset="1" stop-color="white" stop-opacity="0"/>
</linearGradient>
<linearGradient id="paint78_linear_521_14" x1="511.267" y1="333.507" x2="476.213" y2="244.187" gradientUnits="userSpaceOnUse">
<stop stop-color="white"/>
<stop offset="1" stop-color="white" stop-opacity="0"/>
</linearGradient>
<linearGradient id="paint79_linear_521_14" x1="511.267" y1="333.507" x2="476.213" y2="244.187" gradientUnits="userSpaceOnUse">
<stop stop-color="white"/>
<stop offset="1" stop-color="white" stop-opacity="0"/>
</linearGradient>
<linearGradient id="paint80_linear_521_14" x1="511.267" y1="333.507" x2="476.213" y2="244.187" gradientUnits="userSpaceOnUse">
<stop stop-color="white"/>
<stop offset="1" stop-color="white" stop-opacity="0"/>
</linearGradient>
<linearGradient id="paint81_linear_521_14" x1="511.267" y1="333.507" x2="476.213" y2="244.187" gradientUnits="userSpaceOnUse">
<stop stop-color="white"/>
<stop offset="1" stop-color="white" stop-opacity="0"/>
</linearGradient>
<linearGradient id="paint82_linear_521_14" x1="511.267" y1="333.507" x2="476.213" y2="244.187" gradientUnits="userSpaceOnUse">
<stop stop-color="white"/>
<stop offset="1" stop-color="white" stop-opacity="0"/>
</linearGradient>
<linearGradient id="paint83_linear_521_14" x1="511.267" y1="333.507" x2="476.213" y2="244.187" gradientUnits="userSpaceOnUse">
<stop stop-color="white"/>
<stop offset="1" stop-color="white" stop-opacity="0"/>
</linearGradient>
<linearGradient id="paint84_linear_521_14" x1="511.267" y1="333.507" x2="476.213" y2="244.187" gradientUnits="userSpaceOnUse">
<stop stop-color="white"/>
<stop offset="1" stop-color="white" stop-opacity="0"/>
</linearGradient>
<linearGradient id="paint85_linear_521_14" x1="511.267" y1="333.507" x2="476.213" y2="244.187" gradientUnits="userSpaceOnUse">
<stop stop-color="white"/>
<stop offset="1" stop-color="white" stop-opacity="0"/>
</linearGradient>
<linearGradient id="paint86_linear_521_14" x1="511.267" y1="333.507" x2="476.213" y2="244.187" gradientUnits="userSpaceOnUse">
<stop stop-color="white"/>
<stop offset="1" stop-color="white" stop-opacity="0"/>
</linearGradient>
<linearGradient id="paint87_linear_521_14" x1="511.267" y1="333.507" x2="476.213" y2="244.187" gradientUnits="userSpaceOnUse">
<stop stop-color="white"/>
<stop offset="1" stop-color="white" stop-opacity="0"/>
</linearGradient>
<clipPath id="clip0_521_14">
<rect width="748" height="293" fill="white"/>
</clipPath>
</defs>
</svg>
