<svg width="43" height="40" viewBox="0 0 43 40" fill="none" xmlns="http://www.w3.org/2000/svg">
<g clip-path="url(#clip0_651_2)">
<path opacity="0.983" fill-rule="evenodd" clip-rule="evenodd" d="M21.8297 0.278541C22.4757 0.228663 23.1035 0.306365 23.7129 0.511656C30.1846 3.47514 36.6348 6.47455 43.0637 9.50989C43.1403 9.73387 43.1246 9.95141 43.0166 10.1626C36.4365 13.2497 29.845 16.3113 23.2421 19.3473C22.7959 19.415 22.3565 19.384 21.9238 19.2541C16.702 16.8707 11.4917 14.4619 6.29257 12.0275C6.22029 15.073 6.22029 18.1191 6.29257 21.1656C7.50662 21.5782 8.13442 22.4329 8.17585 23.7299C8.08338 25.1732 7.33007 26.059 5.91591 26.3874C5.92045 27.0119 5.96753 27.6336 6.05716 28.2523C6.44226 30.2762 6.74045 32.3121 6.95172 34.36C6.91866 36.4761 6.10255 38.2166 4.50345 39.5817C4.25234 39.6439 4.00124 39.6439 3.75013 39.5817C2.42216 38.6366 1.11956 37.6575 -0.157684 36.6445C-0.227506 36.359 -0.211809 36.0792 -0.110602 35.8053C1.85546 34.5245 3.15806 32.7529 3.79721 30.4902C4.18825 29.1164 4.37658 27.7177 4.3622 26.2942C2.81584 25.4689 2.31363 24.2257 2.85557 22.5643C3.26026 21.7655 3.90371 21.2681 4.78594 21.0724C4.77023 17.808 4.70745 14.5443 4.59761 11.2816C3.81291 10.9242 3.0282 10.5667 2.2435 10.2092C2.08466 10.0309 2.03758 9.8288 2.10226 9.60314C8.67652 6.48005 15.2524 3.37184 21.8297 0.278541Z" fill="#4A3AFF"/>
<path opacity="0.983" fill-rule="evenodd" clip-rule="evenodd" d="M35.3893 15.1045C35.5149 16.4706 35.5776 17.8693 35.5777 19.3006C35.5619 20.6993 35.5463 22.0979 35.5306 23.4966C35.3975 24.1332 35.115 24.6927 34.6831 25.1751C33.2509 26.5141 31.5715 27.431 29.6453 27.9258C24.7829 29.1865 19.9492 29.0933 15.144 27.6461C13.4279 27.1158 11.9683 26.1989 10.7654 24.8953C10.4159 24.4207 10.1962 23.8923 10.1062 23.3101C10.0591 20.6372 10.0434 17.9643 10.0591 15.291C13.7937 16.9068 17.4975 18.6008 21.1705 20.3729C22.1025 20.7556 23.0441 20.7866 23.9955 20.4661C27.802 18.6745 31.6 16.8873 35.3893 15.1045Z" fill="#14C88C"/>
</g>
<defs>
<clipPath id="clip0_651_2">
<rect width="43" height="40" fill="white"/>
</clipPath>
</defs>
</svg>
