<svg width="1440" height="900" viewBox="0 0 1440 900" fill="none" xmlns="http://www.w3.org/2000/svg">
<g clip-path="url(#clip0_6_926)">
<rect width="1440" height="900" fill="black"/>
<mask id="mask0_6_926" style="mask-type:alpha" maskUnits="userSpaceOnUse" x="886" y="-24" width="740" height="655">
<rect x="1482.45" y="-24" width="495.423" height="622.921" transform="rotate(73.2361 1482.45 -24)" fill="url(#paint0_linear_6_926)"/>
</mask>
<g mask="url(#mask0_6_926)">
<path d="M1222.98 501.822C1126.34 530.933 1024.4 476.19 995.289 379.551C966.178 282.911 1020.92 180.97 1117.56 151.86C1214.2 122.749 1185.92 216.718 1215.03 313.357C1244.14 409.997 1319.62 472.712 1222.98 501.822Z" fill="#00FF66"/>
<g filter="url(#filter0_f_6_926)">
<path d="M1219.49 502.873C1144.68 525.407 1060.44 465.333 1031.33 368.693C1002.22 272.054 1039.26 175.444 1114.07 152.91C1188.88 130.376 1273.12 190.45 1302.23 287.09C1331.34 383.729 1294.3 480.339 1219.49 502.873Z" fill="#00FF66"/>
</g>
<g filter="url(#filter1_f_6_926)">
<ellipse cx="1173.75" cy="325.79" rx="182.748" ry="141.463" transform="rotate(73.2361 1173.75 325.79)" fill="#00FF66"/>
</g>
<g filter="url(#filter2_f_6_926)">
<ellipse cx="1192.94" cy="320.011" rx="182.748" ry="142.07" transform="rotate(73.2361 1192.94 320.011)" fill="#00FF66"/>
</g>
<g filter="url(#filter3_f_6_926)">
<ellipse cx="1250.49" cy="302.675" rx="182.748" ry="141.463" transform="rotate(73.2361 1250.49 302.675)" fill="#00FF66"/>
</g>
<g filter="url(#filter4_f_6_926)">
<ellipse cx="1328.39" cy="279.209" rx="153.605" ry="141.463" transform="rotate(73.2361 1328.39 279.209)" fill="#00FF66"/>
</g>
</g>
<mask id="mask1_6_926" style="mask-type:alpha" maskUnits="userSpaceOnUse" x="144" y="-70" width="1241" height="1333">
<rect x="892.37" y="1262.63" width="844.087" height="1061.32" transform="rotate(-152.383 892.37 1262.63)" fill="url(#paint1_linear_6_926)"/>
</mask>
<g mask="url(#mask1_6_926)">
<path d="M561.27 320.084C640.983 167.715 829.121 108.816 981.489 188.528C1133.86 268.24 1192.76 456.379 1113.04 608.747C1033.33 761.115 952.604 614.703 800.235 534.991C647.867 455.279 481.558 472.452 561.27 320.084Z" fill="#36FF4A"/>
<g filter="url(#filter5_f_6_926)">
<path d="M564.148 314.584C625.852 196.638 799.392 165.643 951.761 245.356C1104.13 325.068 1177.63 485.302 1115.92 603.248C1054.22 721.194 880.679 752.189 728.31 672.477C575.942 592.764 502.444 432.531 564.148 314.584Z" fill="#36FF4A"/>
</g>
<g filter="url(#filter6_f_6_926)">
<ellipse cx="834.281" cy="469.91" rx="311.361" ry="241.02" transform="rotate(-152.383 834.281 469.91)" fill="#36FF4A"/>
</g>
<g filter="url(#filter7_f_6_926)">
<ellipse cx="818.458" cy="500.162" rx="311.361" ry="242.054" transform="rotate(-152.383 818.458 500.162)" fill="#36FF4A"/>
</g>
<g filter="url(#filter8_f_6_926)">
<ellipse cx="770.986" cy="590.9" rx="311.361" ry="241.02" transform="rotate(-152.383 770.986 590.9)" fill="#36FF4A"/>
</g>
<g filter="url(#filter9_f_6_926)">
<ellipse cx="706.733" cy="713.718" rx="261.708" ry="241.02" transform="rotate(-152.383 706.733 713.718)" fill="#36FF4A"/>
</g>
</g>
<mask id="mask2_6_926" style="mask-type:alpha" maskUnits="userSpaceOnUse" x="1" y="-84" width="1111" height="908">
<rect x="52.2124" y="823.098" width="844.087" height="1061.32" transform="rotate(-93.472 52.2124 823.098)" fill="url(#paint2_linear_6_926)"/>
</mask>
<g mask="url(#mask2_6_926)">
<path d="M688.417 52.8575C860.061 42.4435 1007.65 173.146 1018.06 344.79C1028.48 516.434 897.774 664.022 726.13 674.436C554.486 684.85 638.183 540.114 627.769 368.47C617.355 196.826 516.773 63.2715 688.417 52.8575Z" fill="#0075FF"/>
<g filter="url(#filter10_f_6_926)">
<path d="M694.611 52.4763C827.478 44.4149 943.63 177.025 954.044 348.669C964.458 520.313 865.19 665.993 732.323 674.054C599.456 682.116 483.303 549.506 472.889 377.862C462.475 206.218 561.743 60.5376 694.611 52.4763Z" fill="#0075FF"/>
</g>
<g filter="url(#filter11_f_6_926)">
<ellipse cx="701.078" cy="364.018" rx="311.361" ry="241.02" transform="rotate(-93.472 701.078 364.018)" fill="#0075FF"/>
</g>
<g filter="url(#filter12_f_6_926)">
<ellipse cx="667.006" cy="366.084" rx="311.361" ry="242.054" transform="rotate(-93.472 667.006 366.084)" fill="#0075FF"/>
</g>
<g filter="url(#filter13_f_6_926)">
<ellipse cx="564.786" cy="372.285" rx="311.361" ry="241.02" transform="rotate(-93.472 564.786 372.285)" fill="#0075FF"/>
</g>
<g filter="url(#filter14_f_6_926)">
<ellipse cx="426.427" cy="380.683" rx="261.708" ry="241.02" transform="rotate(-93.472 426.427 380.683)" fill="#0075FF"/>
</g>
</g>
<mask id="mask3_6_926" style="mask-type:alpha" maskUnits="userSpaceOnUse" x="230" y="-39" width="1144" height="1086">
<path d="M1373.29 609.635C1199.12 725.311 776.978 1106.38 750.624 1038.17L230.893 408.791L812.723 -38.7704L1373.29 609.635Z" fill="url(#paint3_linear_6_926)"/>
</mask>
<g mask="url(#mask3_6_926)">
<path d="M625.206 709.558C583.82 647.431 611.344 553.682 667.215 516.463C723.086 479.244 813.16 455.55 857.564 522.207C879.568 555.238 943.634 570.465 941.954 628.244C940.244 687.06 857.992 728.738 829.807 747.513C773.936 784.732 666.592 771.685 625.206 709.558Z" fill="#BAEF02"/>
<g filter="url(#filter15_f_6_926)">
<path d="M630.49 707.114C586.104 640.484 607.907 557.114 655.932 525.122C703.957 493.13 783.727 476.285 828.113 542.915C850.108 575.933 910.167 593.805 912.384 648.965C914.64 705.116 843.091 739.669 818.865 755.807C770.84 787.799 674.875 773.743 630.49 707.114Z" fill="#BAEF02"/>
</g>
<g filter="url(#filter16_f_6_926)">
<path d="M629.145 705.095C579.397 630.416 609.837 532.976 669.046 493.533C728.255 454.091 824.725 430.506 874.473 505.184C899.125 542.191 975.693 556.058 975.498 619.667C975.298 684.419 882.757 731.372 852.889 751.269C793.68 790.711 678.892 779.774 629.145 705.095Z" fill="#BAEF02"/>
</g>
<g filter="url(#filter17_f_6_926)">
<path d="M630.416 691.806C583.519 589.93 609.437 462.401 678.733 416.238C748.03 370.076 854.117 366.97 913.779 456.532C943.345 500.914 1056.88 507.657 1057.5 583.375C1058.13 660.453 955.483 711.207 920.526 734.494C851.23 780.656 684.743 809.824 630.416 691.806Z" fill="#BAEF02"/>
</g>
<g filter="url(#filter18_f_6_926)">
<path d="M637.767 642.059C573.526 545.624 607.503 403.128 675.255 357.995C743.007 312.862 849.816 314.459 914.057 410.894C945.891 458.682 1010.4 499.482 1014.48 578.734C1018.64 659.409 917.481 707.823 883.304 730.591C815.552 775.724 702.008 738.494 637.767 642.059Z" fill="#BAEF02"/>
</g>
<g filter="url(#filter19_f_6_926)">
<path d="M639.807 586.509C573.42 486.852 607.586 340.227 676.882 294.065C746.178 247.903 855.779 250.071 922.166 349.728C955.064 399.112 1021.45 441.458 1026.03 523.119C1030.69 606.247 927.133 655.625 892.176 678.912C822.88 725.074 706.194 686.166 639.807 586.509Z" fill="#BAEF02"/>
</g>
<g filter="url(#filter20_f_6_926)">
<path d="M678.721 668.805C620.633 581.605 661.942 445.704 731.239 399.542C800.535 353.379 905.8 349.038 963.889 436.238C992.674 479.45 1046.06 519.638 1045.75 593.964C1045.44 669.627 943.009 720.703 908.052 743.989C838.756 790.151 736.81 756.004 678.721 668.805Z" fill="#BAEF02"/>
</g>
</g>
<circle cx="921" cy="450" r="166.117" stroke="#BAFF84" stroke-opacity="0.21" stroke-width="3"/>
<circle cx="921" cy="450" r="293.826" stroke="#BAFF84" stroke-opacity="0.21" stroke-width="3"/>
<circle opacity="0.4" cx="921" cy="450" r="442.819" stroke="#BAFF84" stroke-opacity="0.21" stroke-width="3"/>
<circle opacity="0.2" cx="921" cy="450" r="582.5" stroke="#BAFF84" stroke-opacity="0.21" stroke-width="3"/>
</g>
<defs>
<filter id="filter0_f_6_926" x="1017.4" y="144.176" width="298.768" height="367.431" filterUnits="userSpaceOnUse" color-interpolation-filters="sRGB">
<feFlood flood-opacity="0" result="BackgroundImageFix"/>
<feBlend mode="normal" in="SourceGraphic" in2="BackgroundImageFix" result="shape"/>
<feGaussianBlur stdDeviation="2" result="effect1_foregroundBlur_6_926"/>
</filter>
<filter id="filter1_f_6_926" x="1014.37" y="132.075" width="318.768" height="387.431" filterUnits="userSpaceOnUse" color-interpolation-filters="sRGB">
<feFlood flood-opacity="0" result="BackgroundImageFix"/>
<feBlend mode="normal" in="SourceGraphic" in2="BackgroundImageFix" result="shape"/>
<feGaussianBlur stdDeviation="7" result="effect1_foregroundBlur_6_926"/>
</filter>
<filter id="filter2_f_6_926" x="1013.02" y="106.256" width="359.852" height="427.511" filterUnits="userSpaceOnUse" color-interpolation-filters="sRGB">
<feFlood flood-opacity="0" result="BackgroundImageFix"/>
<feBlend mode="normal" in="SourceGraphic" in2="BackgroundImageFix" result="shape"/>
<feGaussianBlur stdDeviation="17" result="effect1_foregroundBlur_6_926"/>
</filter>
<filter id="filter3_f_6_926" x="1031.11" y="48.9592" width="438.768" height="507.431" filterUnits="userSpaceOnUse" color-interpolation-filters="sRGB">
<feFlood flood-opacity="0" result="BackgroundImageFix"/>
<feBlend mode="normal" in="SourceGraphic" in2="BackgroundImageFix" result="shape"/>
<feGaussianBlur stdDeviation="37" result="effect1_foregroundBlur_6_926"/>
</filter>
<filter id="filter4_f_6_926" x="1055.84" y="-3.46118" width="545.101" height="565.341" filterUnits="userSpaceOnUse" color-interpolation-filters="sRGB">
<feFlood flood-opacity="0" result="BackgroundImageFix"/>
<feBlend mode="normal" in="SourceGraphic" in2="BackgroundImageFix" result="shape"/>
<feGaussianBlur stdDeviation="65" result="effect1_foregroundBlur_6_926"/>
</filter>
<filter id="filter5_f_6_926" x="535.688" y="194.514" width="608.694" height="528.804" filterUnits="userSpaceOnUse" color-interpolation-filters="sRGB">
<feFlood flood-opacity="0" result="BackgroundImageFix"/>
<feBlend mode="normal" in="SourceGraphic" in2="BackgroundImageFix" result="shape"/>
<feGaussianBlur stdDeviation="3.30857" result="effect1_foregroundBlur_6_926"/>
</filter>
<filter id="filter6_f_6_926" x="513.391" y="188.965" width="641.78" height="561.89" filterUnits="userSpaceOnUse" color-interpolation-filters="sRGB">
<feFlood flood-opacity="0" result="BackgroundImageFix"/>
<feBlend mode="normal" in="SourceGraphic" in2="BackgroundImageFix" result="shape"/>
<feGaussianBlur stdDeviation="11.58" result="effect1_foregroundBlur_6_926"/>
</filter>
<filter id="filter7_f_6_926" x="464.302" y="185.371" width="708.312" height="629.582" filterUnits="userSpaceOnUse" color-interpolation-filters="sRGB">
<feFlood flood-opacity="0" result="BackgroundImageFix"/>
<feBlend mode="normal" in="SourceGraphic" in2="BackgroundImageFix" result="shape"/>
<feGaussianBlur stdDeviation="28.1228" result="effect1_foregroundBlur_6_926"/>
</filter>
<filter id="filter8_f_6_926" x="350.839" y="210.698" width="840.294" height="760.404" filterUnits="userSpaceOnUse" color-interpolation-filters="sRGB">
<feFlood flood-opacity="0" result="BackgroundImageFix"/>
<feBlend mode="normal" in="SourceGraphic" in2="BackgroundImageFix" result="shape"/>
<feGaussianBlur stdDeviation="61.2085" result="effect1_foregroundBlur_6_926"/>
</filter>
<filter id="filter9_f_6_926" x="234.214" y="253.006" width="945.038" height="921.424" filterUnits="userSpaceOnUse" color-interpolation-filters="sRGB">
<feFlood flood-opacity="0" result="BackgroundImageFix"/>
<feBlend mode="normal" in="SourceGraphic" in2="BackgroundImageFix" result="shape"/>
<feGaussianBlur stdDeviation="107.528" result="effect1_foregroundBlur_6_926"/>
</filter>
<filter id="filter10_f_6_926" x="465.522" y="45.5103" width="495.889" height="635.51" filterUnits="userSpaceOnUse" color-interpolation-filters="sRGB">
<feFlood flood-opacity="0" result="BackgroundImageFix"/>
<feBlend mode="normal" in="SourceGraphic" in2="BackgroundImageFix" result="shape"/>
<feGaussianBlur stdDeviation="3.30857" result="effect1_foregroundBlur_6_926"/>
</filter>
<filter id="filter11_f_6_926" x="436.591" y="29.7199" width="528.975" height="668.596" filterUnits="userSpaceOnUse" color-interpolation-filters="sRGB">
<feFlood flood-opacity="0" result="BackgroundImageFix"/>
<feBlend mode="normal" in="SourceGraphic" in2="BackgroundImageFix" result="shape"/>
<feGaussianBlur stdDeviation="11.58" result="effect1_foregroundBlur_6_926"/>
</filter>
<filter id="filter12_f_6_926" x="368.404" y="-1.30252" width="597.205" height="734.773" filterUnits="userSpaceOnUse" color-interpolation-filters="sRGB">
<feFlood flood-opacity="0" result="BackgroundImageFix"/>
<feBlend mode="normal" in="SourceGraphic" in2="BackgroundImageFix" result="shape"/>
<feGaussianBlur stdDeviation="28.1228" result="effect1_foregroundBlur_6_926"/>
</filter>
<filter id="filter13_f_6_926" x="201.041" y="-61.2695" width="727.489" height="867.11" filterUnits="userSpaceOnUse" color-interpolation-filters="sRGB">
<feFlood flood-opacity="0" result="BackgroundImageFix"/>
<feBlend mode="normal" in="SourceGraphic" in2="BackgroundImageFix" result="shape"/>
<feGaussianBlur stdDeviation="61.2085" result="effect1_foregroundBlur_6_926"/>
</filter>
<filter id="filter14_f_6_926" x="-29.7378" y="-96.0171" width="912.33" height="953.399" filterUnits="userSpaceOnUse" color-interpolation-filters="sRGB">
<feFlood flood-opacity="0" result="BackgroundImageFix"/>
<feBlend mode="normal" in="SourceGraphic" in2="BackgroundImageFix" result="shape"/>
<feGaussianBlur stdDeviation="107.528" result="effect1_foregroundBlur_6_926"/>
</filter>
<filter id="filter15_f_6_926" x="602.37" y="493.034" width="314.066" height="283.179" filterUnits="userSpaceOnUse" color-interpolation-filters="sRGB">
<feFlood flood-opacity="0" result="BackgroundImageFix"/>
<feBlend mode="normal" in="SourceGraphic" in2="BackgroundImageFix" result="shape"/>
<feGaussianBlur stdDeviation="2" result="effect1_foregroundBlur_6_926"/>
</filter>
<filter id="filter16_f_6_926" x="590.174" y="442.448" width="399.324" height="345.236" filterUnits="userSpaceOnUse" color-interpolation-filters="sRGB">
<feFlood flood-opacity="0" result="BackgroundImageFix"/>
<feBlend mode="normal" in="SourceGraphic" in2="BackgroundImageFix" result="shape"/>
<feGaussianBlur stdDeviation="7" result="effect1_foregroundBlur_6_926"/>
</filter>
<filter id="filter17_f_6_926" x="586.669" y="364.517" width="490.83" height="430.306" filterUnits="userSpaceOnUse" color-interpolation-filters="sRGB">
<feFlood flood-opacity="0" result="BackgroundImageFix"/>
<feBlend mode="normal" in="SourceGraphic" in2="BackgroundImageFix" result="shape"/>
<feGaussianBlur stdDeviation="10" result="effect1_foregroundBlur_6_926"/>
</filter>
<filter id="filter18_f_6_926" x="549.532" y="275.345" width="519.076" height="528.301" filterUnits="userSpaceOnUse" color-interpolation-filters="sRGB">
<feFlood flood-opacity="0" result="BackgroundImageFix"/>
<feBlend mode="normal" in="SourceGraphic" in2="BackgroundImageFix" result="shape"/>
<feGaussianBlur stdDeviation="27" result="effect1_foregroundBlur_6_926"/>
</filter>
<filter id="filter19_f_6_926" x="470.092" y="131.013" width="690.092" height="701.202" filterUnits="userSpaceOnUse" color-interpolation-filters="sRGB">
<feFlood flood-opacity="0" result="BackgroundImageFix"/>
<feBlend mode="normal" in="SourceGraphic" in2="BackgroundImageFix" result="shape"/>
<feGaussianBlur stdDeviation="67" result="effect1_foregroundBlur_6_926"/>
</filter>
<filter id="filter20_f_6_926" x="589.12" y="305.132" width="518.632" height="521.458" filterUnits="userSpaceOnUse" color-interpolation-filters="sRGB">
<feFlood flood-opacity="0" result="BackgroundImageFix"/>
<feBlend mode="normal" in="SourceGraphic" in2="BackgroundImageFix" result="shape"/>
<feGaussianBlur stdDeviation="31" result="effect1_foregroundBlur_6_926"/>
</filter>
<linearGradient id="paint0_linear_6_926" x1="1846.12" y1="472.03" x2="1846.12" y2="-24" gradientUnits="userSpaceOnUse">
<stop stop-color="white"/>
<stop offset="1" stop-color="white" stop-opacity="0"/>
</linearGradient>
<linearGradient id="paint1_linear_6_926" x1="1511.99" y1="2107.76" x2="1511.99" y2="1262.63" gradientUnits="userSpaceOnUse">
<stop stop-color="white"/>
<stop offset="1" stop-color="white" stop-opacity="0"/>
</linearGradient>
<linearGradient id="paint2_linear_6_926" x1="671.83" y1="1668.22" x2="671.83" y2="823.098" gradientUnits="userSpaceOnUse">
<stop stop-color="white"/>
<stop offset="1" stop-color="white" stop-opacity="0"/>
</linearGradient>
<linearGradient id="paint3_linear_6_926" x1="634.791" y1="704.887" x2="914.234" y2="503.408" gradientUnits="userSpaceOnUse">
<stop stop-color="#C4C4C4"/>
<stop offset="1" stop-color="#C4C4C4" stop-opacity="0"/>
</linearGradient>
<clipPath id="clip0_6_926">
<rect width="1440" height="900" fill="white"/>
</clipPath>
</defs>
</svg>
